<?xml version="1.0" encoding="UTF-8"?>
<svg width="528px" height="665px" viewBox="0 0 528 665" version="1.1" xmlns="http://www.w3.org/2000/svg" xmlns:xlink="http://www.w3.org/1999/xlink">
    <!-- Generator: Sketch 64 (93537) - https://sketch.com -->
    <title>Growth Curve, Boy</title>
    <desc>Created with Sketch.</desc>
    <g id="Growth-Curve,-Boy" stroke="none" stroke-width="1" fill="none" fill-rule="evenodd">
        <rect fill="#FFFFFF" x="0" y="0" width="528" height="665"></rect>
        <path d="M483.010107,480 C484.459436,480 485.909776,480 487.359106,480 M483.010107,494 C484.459436,494 485.909776,494 487.359106,494 M483,487.006702 L509,487.006702" id="Stroke-1" stroke="#005795" stroke-width="0.104"></path>
        <path d="M483,473.5 C491.667998,473.5 500.333999,473.5 509,473.5" id="Stroke-2" stroke="#005795" stroke-width="0.75"></path>
        <path d="M483.010107,453 C484.459436,453 485.909776,453 487.359106,453 M483.010107,467 C484.459436,467 485.909776,467 487.359106,467 M483,460.007733 L509,460.007733" id="Stroke-3" stroke="#005795" stroke-width="0.104"></path>
        <path d="M483,446.5 C491.667656,446.5 500.333333,446.5 509,446.5" id="Stroke-4" stroke="#005795" stroke-width="0.75"></path>
        <path d="M483.001,438.999254 C484.435276,439.000249 485.870552,439.000249 487.304828,438.999254 M483,432.253171 C491.667667,432.253171 500.333333,432.253171 509,432.253171 M483.001,412 C484.435276,412 485.870552,412 487.304828,412 M483.001,425.507087 C484.435276,425.507087 485.870552,425.507087 487.304828,425.507087" id="Stroke-5" stroke="#005795" stroke-width="0.104"></path>
        <line x1="483" y1="418.5" x2="509" y2="418.5" id="Stroke-6" stroke="#005795" stroke-width="0.75"></line>
        <path d="M483.004994,404.999228 C491.670995,405.000257 500.334998,405.000257 509,404.999228 M483,398 C484.432182,398 485.864364,398 487.297545,398" id="Stroke-7" stroke="#005795" stroke-width="0.104"></path>
        <path d="M483,391.499625 C491.667656,391.500625 500.333333,391.500625 509,391.499625" id="Stroke-8" stroke="#005795" stroke-width="0.75"></path>
        <path d="M483.009996,371 C484.443389,371.001031 485.876783,371.001031 487.311176,371 M483.009996,385 C484.443389,385 485.876783,385 487.311176,385 M483,378.007733 L509,378.007733" id="Stroke-9" stroke="#005795" stroke-width="0.104"></path>
        <path d="M483,364.5 C491.667658,364.5 500.333333,364.5 509,364.5" id="Stroke-10" stroke="#005795" stroke-width="0.75"></path>
        <path d="M483.009889,303.808815 C484.427963,303.808815 485.846037,303.808815 487.2651,303.808815 M483,297 L509,297 M483.009889,331 C484.427963,330.998998 485.846037,330.998998 487.2651,331" id="Stroke-11" stroke="#005795" stroke-width="0.104"></path>
        <path d="M483,310.5 C491.66765,310.5 500.333333,310.5 509,310.5" id="Stroke-12" stroke="#005795" stroke-width="0.75"></path>
        <path d="M483.010161,317 C484.467259,317 485.924356,317 487.38247,317 M483,324 L510,324" id="Stroke-13" stroke="#005795" stroke-width="0.104"></path>
        <path d="M483,337.5 C491.667333,337.5 500.333667,337.5 509,337.5" id="Stroke-14" stroke="#005795" stroke-width="0.75"></path>
        <path d="M483.010061,358 C484.452829,358 485.895596,358 487.33937,358 M483.010061,344.42443 C484.452829,344.42443 485.895596,344.42443 487.33937,344.42443 M483,351.204717 L509,351.204717 M483.010061,290.137144 C484.452829,290.137144 485.895596,290.137144 487.33937,290.137144 M483.010061,263 C484.452829,263 485.895596,263 487.33937,263" id="Stroke-15" stroke="#005795" stroke-width="0.104"></path>
        <path d="M483,283.500375 C491.667665,283.499375 500.333333,283.499375 509,283.500375" id="Stroke-16" stroke="#005795" stroke-width="0.75"></path>
        <path d="M483.010105,276 C484.459096,276 485.908088,276 487.358089,276 M483,269 L509,269" id="Stroke-17" stroke="#005795" stroke-width="0.104"></path>
        <path d="M483,256.5 C491.667656,256.5 500.333333,256.5 509,256.5" id="Stroke-18" stroke="#005795" stroke-width="0.75"></path>
        <path d="M483.009889,235 C484.427963,235 485.846037,235 487.2651,235 M483.009889,249 C484.427963,249 485.846037,249 487.2651,249 M483,242.006702 L509,242.006702" id="Stroke-19" stroke="#005795" stroke-width="0.104"></path>
        <path d="M483,228.499625 C491.667656,228.500625 500.333333,228.500625 509,228.499625" id="Stroke-20" stroke="#005795" stroke-width="0.75"></path>
        <path d="M483.007087,222 C484.458885,222 485.910683,222 487.363493,222 M483.006074,215.168849 C492.0054,215.168849 501.0027,215.168849 510,215.168849 M483.007087,208.337698 C484.458885,208.337698 485.910683,208.337698 487.363493,208.337698 M483,181 C484.451798,181 485.903596,181 487.356406,181" id="Stroke-21" stroke="#005795" stroke-width="0.104"></path>
        <path d="M483,201.5 C491.667326,201.5 500.333663,201.5 509,201.5" id="Stroke-22" stroke="#005795" stroke-width="0.75"></path>
        <path d="M483.009993,195 C484.443001,195 485.876009,195 487.310016,195 M483,188 L509,188" id="Stroke-23" stroke="#005795" stroke-width="0.104"></path>
        <path d="M483,174.5 C491.667332,174.5 500.333666,174.5 509,174.5" id="Stroke-24" stroke="#005795" stroke-width="0.75"></path>
        <path d="M483.009993,154 C484.443001,154 485.876009,154 487.310016,154 M483.009993,168 C484.443001,168 485.876009,168 487.310016,168 M483,161.006702 L509,161.006702" id="Stroke-25" stroke="#005795" stroke-width="0.104"></path>
        <path d="M47,403 L20.2568944,403 M47,417.934321 L20,417.934321 M47,433 L20.2568944,433" id="Stroke-26" stroke="#005795" stroke-width="0.75"></path>
        <path d="M47,262 C45.6660469,262 44.3330235,262 43,262 M47,277.500508 C45.6660469,277.500508 44.3330235,277.500508 43,277.500508 M47,293 C45.6660469,293 44.3330235,293 43,293 M47,269.765498 C45.6660469,269.765498 44.3330235,269.765498 43,269.765498 M47,285.26499 C45.6660469,285.26499 44.3330235,285.26499 43,285.26499" id="Stroke-27" stroke="#005795" stroke-width="0.104"></path>
        <path d="M48,281 L21,281 M48,266 L21,266" id="Stroke-28" stroke="#005795" stroke-width="0.75"></path>
        <path d="M47,258 C37.9996653,258 28.9993306,258 20,258 M47,273.205583 C38.1171396,273.205583 29.2352832,273.205583 20.3544309,273.205583 M47,288.410169 C37.9996653,288.410169 28.9993306,288.410169 20,288.410169 M47,307.385245 C45.5591834,307.385245 44.1193708,307.385245 42.6795582,307.385245 M47,322.589831 C45.5591834,322.589831 44.1193708,322.589831 42.6795582,322.589831 M47,337.795414 C45.5591834,337.795414 44.1193708,337.795414 42.6795582,337.795414 M47,353 C45.5591834,352.999003 44.1193708,352.999003 42.6795582,353 M47,299.797408 C45.5591834,299.797408 44.1193708,299.797408 42.6795582,299.797408 M47,315.001994 C45.5591834,315.001994 44.1193708,315.001994 42.6795582,315.001994 M47,330.207577 C45.5591834,330.207577 44.1193708,330.207577 42.6795582,330.207577 M47,345.412163 C45.5591834,345.412163 44.1193708,345.412163 42.6795582,345.412163" id="Stroke-29" stroke="#005795" stroke-width="0.104"></path>
        <path d="M47,357 L20,357 M47,341.74925 L20,341.74925 M47,326.5005 L20.3293545,326.5005 M47,311.24975 L20.1646773,311.24975 M47,296 L20.0010103,296" id="Stroke-30" stroke="#005795" stroke-width="0.75"></path>
        <path d="M47,304.219418 C38.1160454,304.219418 29.2340858,304.219418 20.3511287,304.219418 M47,319.479278 C38.2337533,319.479278 29.4675066,319.479278 20.7022574,319.479278 M47,334.740139 C38.1160454,334.740139 29.2340858,334.740139 20.3511287,334.740139 M47,350 C37.999335,350 28.9996675,350 20,350 M47,224.082887 C45.5685521,224.082887 44.1381017,224.082887 42.7076514,224.082887 M47,208.823026 C45.5685521,208.823026 44.1381017,208.823026 42.7076514,208.823026 M47,193.562165 C45.5685521,193.562165 44.1381017,193.562165 42.7076514,193.562165 M47,178.302305 C45.5685521,178.302305 44.1381017,178.302305 42.7076514,178.302305 M47,163.041443 C45.5685521,163.041443 44.1381017,163.041443 42.7076514,163.041443 M47,147.781583 C45.5685521,147.781583 44.1381017,147.781583 42.7076514,147.781583 M47,132.520722 C45.5685521,132.520722 44.1381017,132.520722 42.7076514,132.520722 M47,117.260861 C45.5685521,117.260861 44.1381017,117.260861 42.7076514,117.260861 M47,102 C45.5685521,102 44.1381017,102 42.7076514,102 M47,231.698309 C45.5685521,231.697308 44.1381017,231.697308 42.7076514,231.698309 M47,216.438448 C45.5685521,216.438448 44.1381017,216.438448 42.7076514,216.438448 M47,201.176586 C45.5685521,201.176586 44.1381017,201.176586 42.7076514,201.176586 M47,185.917726 C45.5685521,185.917726 44.1381017,185.917726 42.7076514,185.917726 M47,170.656865 C45.5685521,170.655865 44.1381017,170.655865 42.7076514,170.656865 M47,155.397005 C45.5685521,155.397005 44.1381017,155.397005 42.7076514,155.397005 M47,140.136144 C45.5685521,140.136144 44.1381017,140.136144 42.7076514,140.136144 M47,124.876283 C45.5685521,124.876283 44.1381017,124.876283 42.7076514,124.876283 M47,109.615422 C45.5685521,109.615422 44.1381017,109.615422 42.7076514,109.615422" id="Stroke-31" stroke="#005795" stroke-width="0.104"></path>
        <path d="M47,113 L20.3283621,113 M47,128.2505 L20.1646831,128.2505 M47,143.5 L20.3283621,143.5 M47,158.7505 L20.3283621,158.7505 M47,174 L20,174 M47,189.2505 L20.3283621,189.2505 M47,204.5 L20.1646831,204.5 M47,219.7495 L20,219.7495 M47,235 L20.3283621,235" id="Stroke-32" stroke="#005795" stroke-width="0.75"></path>
        <path d="M47,228 C38.1160454,227.999 29.2340858,227.999 20.3511287,228 M47,212.753758 C38.1160454,212.753758 29.2340858,212.753758 20.3511287,212.753758 M47,197.506516 C37.999335,197.506516 28.9996675,197.506516 20,197.506516 M47,182.260273 C38.1160454,182.260273 29.2340858,182.260273 20.3511287,182.260273 M47,167.013031 C38.1748993,167.013031 29.3507962,167.013031 20.526693,167.013031 M47,151.766789 C37.999335,151.766789 28.9996675,151.766789 20,151.766789 M47,136.519547 C38.1160454,136.519547 29.2340858,136.519547 20.3521262,136.519547 M47,121.273305 C38.0581889,121.273305 29.1163779,121.273305 20.1755643,121.273305 M47,106.026063 C38.0581889,106.026063 29.1163779,106.026063 20.1755643,106.026063 M47,87 C45.5685521,87 44.1381017,87 42.7076514,87 M47,94.6086257 C45.5685521,94.6086257 44.1381017,94.6086257 42.7076514,94.6086257" id="Stroke-33" stroke="#005795" stroke-width="0.104"></path>
        <line x1="47" y1="98.5" x2="20" y2="98.5" id="Stroke-34" stroke="#005795" stroke-width="0.75"></line>
        <path d="M48,91 C38.9989826,91 29.9989826,91 21,91 M48,72 C46.5400181,72 45.0810536,72 43.6220891,72 M48,79.5978038 C46.5400181,79.5978038 45.0810536,79.5978038 43.6220891,79.5978038" id="Stroke-35" stroke="#005795" stroke-width="0.104"></path>
        <path d="M48,68 L21,68 M48,83 L21,83" id="Stroke-36" stroke="#005795" stroke-width="0.75"></path>
        <path d="M47,75 C37.9989893,75 29,75 20,75 M47,246.370187 C45.5496912,246.370187 44.100393,246.370187 42.6510949,246.370187 M47,238.769336 C45.5496912,238.769336 44.100393,238.769336 42.6510949,238.769336 M47,254 C45.5496912,254 44.100393,254 42.6510949,254" id="Stroke-37" stroke="#005795" stroke-width="0.104"></path>
        <line x1="47" y1="250.5" x2="20" y2="250.5" id="Stroke-38" stroke="#005795" stroke-width="0.75"></line>
        <path d="M47,243 C37.9989893,243 29,243 20,243 M47,369 C45.5496912,369 44.100393,369 42.6510949,369 M47,361.376536 C45.5496912,361.376536 44.100393,361.376536 42.6510949,361.376536" id="Stroke-39" stroke="#005795" stroke-width="0.104"></path>
        <path d="M47,388 L20.3020067,388 M47,373 L20,373" id="Stroke-40" stroke="#005795" stroke-width="0.75"></path>
        <path d="M47,364.634266 C37.9996653,364.634266 28.9993306,364.634266 20,364.634266 M47,395.113874 C38.1131233,395.114874 29.2272508,395.114874 20.3403741,395.113874 M47,383.651295 C45.5591834,383.651295 44.1193708,383.651295 42.6795582,383.651295 M47,398.892099 C45.5591834,398.892099 44.1193708,398.892099 42.6795582,398.892099 M47,376.045882 C45.5591834,376.045882 44.1193708,376.045882 42.6795582,376.045882 M47,391.286686 C45.5591834,391.286686 44.1193708,391.286686 42.6795582,391.286686 M47,379.873071 C38.0579004,379.873071 29.1178089,379.873071 20.1767134,379.873071 M47,414 C45.5591834,414 44.1193708,414 42.6795582,414 M47,406.394587 C45.5591834,406.394587 44.1193708,406.394587 42.6795582,406.394587 M47,410.221776 C37.9996653,410.221776 28.9993306,410.221776 20,410.221776 M47,56 C45.5591834,56 44.1193708,56 42.6795582,56 M47,63.6054128 C45.5591834,63.6054128 44.1193708,63.6054128 42.6795582,63.6054128 M47,59.7782244 C38.0579004,59.7782244 29.1178089,59.7782244 20.1767134,59.7782244" id="Stroke-41" stroke="#005795" stroke-width="0.104"></path>
        <line x1="48" y1="52.5" x2="21" y2="52.5" id="Stroke-42" stroke="#005795" stroke-width="0.75"></line>
        <path d="M47,429.366922 C45.5496912,429.366922 44.100393,429.366922 42.6510949,429.366922 M47,421.775801 C45.5496912,421.775801 44.100393,421.775801 42.6510949,421.775801 M47,425.60183 C37.9989893,425.60183 29,425.60183 20,425.60183 M47,437 C45.5496912,437 44.100393,437 42.6510949,437 M47,41 C45.5496912,41 44.100393,41 42.6510949,41 M47,48.6021099 C45.5496912,48.6031089 44.100393,48.6031089 42.6510949,48.6021099 M47,44.7760809 C37.9989893,44.7760809 29,44.7760809 20,44.7760809" id="Stroke-43" stroke="#005795" stroke-width="0.104"></path>
        <line x1="48" y1="37.5" x2="21" y2="37.5" id="Stroke-44" stroke="#005795" stroke-width="0.75"></line>
        <path d="M48,34 C46.5400731,34 45.0811636,34 43.622254,34 M48,30.0030051 C38.9993218,30.0030051 29.9996609,30.0030051 21,30.0030051 M48,26.0007839 C46.5400731,25.9997387 45.0811636,25.9997387 43.622254,26.0007839" id="Stroke-45" stroke="#005795" stroke-width="0.104"></path>
        <line x1="48" y1="21.5" x2="21" y2="21.5" id="Stroke-46" stroke="#005795" stroke-width="0.75"></line>
        <path d="M483,133 C484.333953,133 485.666977,133 487,133 M483,117.500508 C484.333953,117.500508 485.666977,117.500508 487,117.500508 M483,102 C484.333953,102 485.666977,102 487,102 M483,125.235518 C484.333953,125.235518 485.666977,125.235518 487,125.235518 M483,109.73501 C484.333953,109.73501 485.666977,109.73501 487,109.73501" id="Stroke-47" stroke="#005795" stroke-width="0.104"></path>
        <path d="M483,114 L509.835317,114 M483,129 L510,129" id="Stroke-48" stroke="#005795" stroke-width="0.75"></path>
        <path d="M483,137 C491.9421,137 500.882191,137 509.823287,137 M483,121.605834 C492.000335,121.605834 501.000669,121.605834 510,121.605834 M483,106.210659 C492.000335,106.210659 501.000669,106.210659 510,106.210659 M483,87 C484.440817,87 485.880629,87 487.320442,87 M483,94.6824468 C484.440817,94.6824468 485.880629,94.6824468 487.320442,94.6824468" id="Stroke-49" stroke="#005795" stroke-width="0.104"></path>
        <line x1="483" y1="98.5" x2="510" y2="98.5" id="Stroke-50" stroke="#005795" stroke-width="0.75"></line>
        <path d="M482,91 C491.000678,91 500.000339,91 509,91 M482,72 C483.459927,72 484.918836,72 486.377746,72 M482,79.5978038 C483.459927,79.5978038 484.918836,79.5978038 486.377746,79.5978038" id="Stroke-51" stroke="#005795" stroke-width="0.104"></path>
        <path d="M482,68 L509,68 M482,83 L509,83" id="Stroke-52" stroke="#005795" stroke-width="0.75"></path>
        <path d="M483,75 C492.001011,75 501.001011,75 510,75 M483,56 C484.450309,56 485.899607,56 487.348905,56 M483,63.5990016 C484.450309,63.5990016 485.899607,63.5990016 487.348905,63.5990016 M483,59.7750394 C492.001011,59.7750394 501.001011,59.7750394 510,59.7750394" id="Stroke-53" stroke="#005795" stroke-width="0.104"></path>
        <line x1="482" y1="52.5" x2="509" y2="52.5" id="Stroke-54" stroke="#005795" stroke-width="0.75"></line>
        <path d="M483,41 C484.450309,41 485.899607,41 487.348905,41 M483,48.9992116 C484.450309,49.0002628 485.899607,49.0002628 487.348905,48.9992116 M483,44.9733272 C492.001011,44.9733272 501.001011,44.9733272 510,44.9733272" id="Stroke-55" stroke="#005795" stroke-width="0.104"></path>
        <line x1="482" y1="37.5" x2="509" y2="37.5" id="Stroke-56" stroke="#005795" stroke-width="0.75"></line>
        <path d="M482,34 C483.459927,34 484.918836,34 486.377746,34 M482,30.0030051 C491.000678,30.0030051 500.000339,30.0030051 509,30.0030051 M482,26.0007839 C483.459927,25.9997387 484.918836,25.9997387 486.377746,26.0007839" id="Stroke-57" stroke="#005795" stroke-width="0.104"></path>
        <line x1="482" y1="21.5" x2="509" y2="21.5" id="Stroke-58" stroke="#005795" stroke-width="0.75"></line>
        <path d="M46.9901111,601.808014 C45.5720371,601.808014 44.1529743,601.808014 42.7349003,601.808014 M47,595 L21,595 M46.9901111,629 C45.5720371,629 44.1529743,629 42.7349003,629" id="Stroke-59" stroke="#005795" stroke-width="0.104"></path>
        <path d="M47,608.499625 C38.3323498,608.500625 29.6656832,608.500625 21,608.499625" id="Stroke-60" stroke="#005795" stroke-width="0.75"></path>
        <path d="M46.9898389,616 C45.5327412,616 44.0746274,616 42.6175297,616 M47,623 L20,623" id="Stroke-61" stroke="#005795" stroke-width="0.104"></path>
        <path d="M47,636.5 C38.3326667,636.5 29.6663334,636.5 21,636.5" id="Stroke-62" stroke="#005795" stroke-width="0.75"></path>
        <path d="M47,643 C45.6669765,643 44.3330235,643 43,643 M47,588.99569 C45.6669765,588.99569 44.3330235,588.99569 43,588.99569 M47,562 C45.6669765,562.000995 44.3330235,562.000995 43,562" id="Stroke-63" stroke="#005795" stroke-width="0.104"></path>
        <path d="M47,581.5 C38.332349,581.5 29.6656824,581.5 21,581.5" id="Stroke-64" stroke="#005795" stroke-width="0.75"></path>
        <path d="M46.9898588,575 C45.535607,575 44.080341,575 42.6260892,575 M47,568 L20,568" id="Stroke-65" stroke="#005795" stroke-width="0.104"></path>
        <path d="M47,554.5 C38.3323441,554.5 29.6656774,554.5 21,554.5" id="Stroke-66" stroke="#005795" stroke-width="0.75"></path>
        <path d="M46.9901111,534 C45.5720371,534 44.1529743,534 42.7349003,534 M46.9901111,548 C45.5720371,548 44.1529743,548 42.7349003,548 M47,541.007733 L21,541.007733" id="Stroke-67" stroke="#005795" stroke-width="0.104"></path>
        <path d="M47,527.5 C38.3323441,527.5 29.6656774,527.5 21,527.5" id="Stroke-68" stroke="#005795" stroke-width="0.75"></path>
        <path d="M46.9929131,521 C45.5411152,521 44.0883048,521 42.6365068,521 M46.9939255,514.168681 C37.9946005,514.168681 28.9973002,514.168681 20,514.168681 M46.9929131,507.337362 C45.5411152,507.337362 44.0883048,507.337362 42.6365068,507.337362 M47,480 C45.548202,480 44.0953917,480 42.6435937,480" id="Stroke-69" stroke="#005795" stroke-width="0.104"></path>
        <path d="M47,500.5 C38.332674,500.5 29.666337,500.5 21,500.5" id="Stroke-70" stroke="#005795" stroke-width="0.75"></path>
        <path d="M46.989958,494 C45.5499312,494 44.1089002,494 42.6688734,494 M47,487 L20,487" id="Stroke-71" stroke="#005795" stroke-width="0.104"></path>
        <path d="M47,473.5 C38.3326773,473.5 29.6663387,473.5 21,473.5" id="Stroke-72" stroke="#005795" stroke-width="0.75"></path>
        <path d="M46.9901336,453 C45.5752884,453 44.1594566,453 42.7446114,453 M46.9901336,467 C45.5752884,467 44.1594566,467 42.7446114,467 M47,460.007733 L21,460.007733" id="Stroke-73" stroke="#005795" stroke-width="0.104"></path>
        <text id="L" font-family="LucidaGrande, Lucida Grande" font-size="9.9996" font-weight="normal" fill="#005795">
            <tspan x="5" y="204">L</tspan>
        </text>
        <text id="E" font-family="LucidaGrande, Lucida Grande" font-size="9.9996" font-weight="normal" fill="#005795">
            <tspan x="5" y="216">E</tspan>
        </text>
        <text id="N" font-family="LucidaGrande, Lucida Grande" font-size="9.9996" font-weight="normal" fill="#005795">
            <tspan x="4" y="228">N</tspan>
        </text>
        <text id="G" font-family="LucidaGrande, Lucida Grande" font-size="9.9996" font-weight="normal" fill="#005795">
            <tspan x="4" y="240">G</tspan>
        </text>
        <text id="T" font-family="LucidaGrande, Lucida Grande" font-size="9.9996" font-weight="normal" fill="#005795">
            <tspan x="5" y="252">T</tspan>
        </text>
        <text id="H" font-family="LucidaGrande, Lucida Grande" font-size="9.9996" font-weight="normal" fill="#005795">
            <tspan x="4" y="264">H</tspan>
        </text>
        <text id="L" font-family="LucidaGrande, Lucida Grande" font-size="9.9996" font-weight="normal" fill="#005795">
            <tspan x="519" y="45">L</tspan>
        </text>
        <text id="E" font-family="LucidaGrande, Lucida Grande" font-size="9.9996" font-weight="normal" fill="#005795">
            <tspan x="518" y="57">E</tspan>
        </text>
        <text id="N" font-family="LucidaGrande, Lucida Grande" font-size="9.9996" font-weight="normal" fill="#005795">
            <tspan x="518" y="69">N</tspan>
        </text>
        <text id="G" font-family="LucidaGrande, Lucida Grande" font-size="9.9996" font-weight="normal" fill="#005795">
            <tspan x="518" y="81">G</tspan>
        </text>
        <text id="T" font-family="LucidaGrande, Lucida Grande" font-size="9.9996" font-weight="normal" fill="#005795">
            <tspan x="519" y="93">T</tspan>
        </text>
        <text id="H" font-family="LucidaGrande, Lucida Grande" font-size="9.9996" font-weight="normal" fill="#005795">
            <tspan x="518" y="105">H</tspan>
        </text>
        <text id="W" font-family="LucidaGrande, Lucida Grande" font-size="9.9996" font-weight="normal" fill="#005795">
            <tspan x="516" y="286">W</tspan>
        </text>
        <text id="E" font-family="LucidaGrande, Lucida Grande" font-size="9.9996" font-weight="normal" fill="#005795">
            <tspan x="517" y="298">E</tspan>
        </text>
        <text id="I" font-family="LucidaGrande, Lucida Grande" font-size="9.9996" font-weight="normal" fill="#005795">
            <tspan x="519" y="310">I</tspan>
        </text>
        <text id="G" font-family="LucidaGrande, Lucida Grande" font-size="9.9996" font-weight="normal" fill="#005795">
            <tspan x="517" y="322">G</tspan>
        </text>
        <text id="H" font-family="LucidaGrande, Lucida Grande" font-size="9.9996" font-weight="normal" fill="#005795">
            <tspan x="517" y="334">H</tspan>
        </text>
        <text id="T" font-family="LucidaGrande, Lucida Grande" font-size="9.9996" font-weight="normal" fill="#005795">
            <tspan x="517" y="346">T</tspan>
        </text>
        <text id="W" font-family="LucidaGrande, Lucida Grande" font-size="9.9996" font-weight="normal" fill="#005795">
            <tspan x="5" y="520">W</tspan>
        </text>
        <text id="E" font-family="LucidaGrande, Lucida Grande" font-size="9.9996" font-weight="normal" fill="#005795">
            <tspan x="6" y="532">E</tspan>
        </text>
        <text id="I" font-family="LucidaGrande, Lucida Grande" font-size="9.9996" font-weight="normal" fill="#005795">
            <tspan x="8" y="544">I</tspan>
        </text>
        <text id="G" font-family="LucidaGrande, Lucida Grande" font-size="9.9996" font-weight="normal" fill="#005795">
            <tspan x="6" y="556">G</tspan>
        </text>
        <text id="H" font-family="LucidaGrande, Lucida Grande" font-size="9.9996" font-weight="normal" fill="#005795">
            <tspan x="6" y="568">H</tspan>
        </text>
        <text id="T" font-family="LucidaGrande, Lucida Grande" font-size="9.9996" font-weight="normal" fill="#005795">
            <tspan x="7" y="580">T</tspan>
        </text>
        <text id="Birth" font-family="LucidaGrande, Lucida Grande" font-size="10.9999" font-weight="normal" fill="#005795">
            <tspan x="61" y="660">Birth</tspan>
        </text>
        <text id="39" font-family="LucidaGrande, Lucida Grande" font-size="10.9999" font-weight="normal" letter-spacing="5.514" fill="#005795">
            <tspan x="101" y="660">39</tspan>
        </text>
        <text id="6" font-family="LucidaGrande, Lucida Grande" font-size="10.9999" font-weight="normal" fill="#005795">
            <tspan x="133" y="660">6</tspan>
        </text>
        <path d="M482.881967,122 L47.0980272,122 M483,92 L47,92" id="Stroke-74" stroke="#005795" stroke-width="0.75"></path>
        <path d="M47.0469983,68 L482.72101,68 M47.0469983,73.9800446 L482.916003,73.9800446 M47.0469983,79.9961377 L482.818007,79.9961377 M47.0469983,85.9761822 L482.72101,85.9761822 M47.1619941,98.0123738 L482.818007,98.0123738 M47.1619941,103.991417 L482.72101,103.991417 M47.1619941,109.971462 L482.72101,109.971462 M47.1619941,116.026607 L482.623014,116.026607 M47.1619941,127.986696 L482.767009,127.986696 M47.1619941,134.003791 L483,134.003791 M47.1619941,139.983835 L455.687002,139.983835 M47.1619941,146.001931 L455.771999,146.001931 M47.0469983,157.998069 L482.818007,157.998069 M47.0469983,163.978113 L482.818007,163.978113 M47.0469983,169.995208 L482.783008,169.995208 M47,230.020957 L482.704011,230.020957 M47,236 L482.832006,236" id="Stroke-75" stroke="#005795" stroke-width="0.104"></path>
        <path d="M483,391.400809 L47.9069283,391.400809 L483,391.400809 Z M21,18 L21,439.38811 L21,18 Z M72.7779805,18.6340965 L72.7779805,649 L72.7779805,18.6340965 Z" id="Stroke-76" stroke="#005795" stroke-width="0.75"></path>
        <path d="M47.5,419 L47.5,62 L47.5,419 Z" id="Stroke-77" stroke="#1A1919" stroke-width="0.75"></path>
        <path d="M47,440 L47,19.4435091 L47,440 Z M509,140.419602 L509,19 L509,140.419602 Z M482.859496,19.4435091 L482.859496,140.652344 L482.859496,19.4435091 Z" id="Stroke-78" stroke="#005795" stroke-width="0.75"></path>
        <line x1="47" y1="56.5" x2="483" y2="56.5" id="Stroke-79" stroke="#005795" stroke-width="0.104"></line>
        <line x1="47" y1="62.5" x2="483" y2="62.5" id="Stroke-80" stroke="#005795" stroke-width="0.75"></line>
        <text id="Birth" font-family="LucidaGrande, Lucida Grande" font-size="10.9999" font-weight="normal" fill="#005795">
            <tspan x="61" y="13">Birth</tspan>
        </text>
        <text id="3" font-family="LucidaGrande, Lucida Grande" font-size="10.9999" font-weight="normal" fill="#005795">
            <tspan x="102" y="13">3</tspan>
        </text>
        <text id="12" font-family="LucidaGrande, Lucida Grande" font-size="10.9999" font-weight="normal" fill="#005795">
            <tspan x="195" y="13">12</tspan>
        </text>
        <text id="9" font-family="LucidaGrande, Lucida Grande" font-size="10.9999" font-weight="normal" fill="#005795">
            <tspan x="166" y="13">9</tspan>
        </text>
        <text id="6" font-family="LucidaGrande, Lucida Grande" font-size="10.9999" font-weight="normal" fill="#005795">
            <tspan x="134" y="13">6</tspan>
        </text>
        <text id="18" font-family="LucidaGrande, Lucida Grande" font-size="10.9999" font-weight="normal" fill="#005795">
            <tspan x="258" y="13">18</tspan>
        </text>
        <text id="21" font-family="LucidaGrande, Lucida Grande" font-size="10.9999" font-weight="normal" fill="#005795">
            <tspan x="290" y="13">21</tspan>
        </text>
        <text id="24" font-family="LucidaGrande, Lucida Grande" font-size="10.9999" font-weight="normal" fill="#005795">
            <tspan x="322" y="13">24</tspan>
        </text>
        <text id="273033" font-family="LucidaGrande, Lucida Grande" font-size="10.9999" font-weight="normal" fill="#005795">
            <tspan x="354" y="13">2</tspan>
            <tspan x="360.955503" y="13" letter-spacing="20.7485802">7</tspan>
            <tspan x="388.659587" y="13">3</tspan>
            <tspan x="395.61509" y="13" letter-spacing="20.3004032">0</tspan>
            <tspan x="422.870996" y="13">33</tspan>
        </text>
        <text id="36" font-family="LucidaGrande, Lucida Grande" font-size="10.9999" font-weight="normal" fill="#005795">
            <tspan x="450" y="13">36</tspan>
        </text>
        <text id="15" font-family="LucidaGrande, Lucida Grande" font-size="10.9999" font-weight="normal" fill="#005795">
            <tspan x="226" y="13">15</tspan>
        </text>
        <path d="M78,21.9962465 L78,19 M88.6164742,21.9962465 L88.6164742,19 M99.3280421,21.9962465 L99.3280421,19 M109.944516,21.9962465 L109.944516,19 M120.656084,21.9962465 L120.656084,19 M131.272558,22 L131.272558,19 M141.936079,21.9915546 L141.936079,19 M152.552553,21.9915546 L152.552553,19 M163.264121,21.9915546 L163.264121,19 M173.880595,21.9915546 L173.880595,19 M184.592163,21.9962465 L184.592163,19 M195.208637,21.9962465 L195.208637,19 M205.872158,21.9915546 L205.872158,19 M216.53668,21.9962465 L216.53668,19 M227.2002,21.9915546 L227.2002,19 M248.522236,22 L248.522236,19 M237.863721,22 L237.863721,19 M259.144717,21.9915546 L259.144717,19 M269.808237,21.9915546 L269.808237,19 M280.471758,21.9878011 L280.471758,19 M291.088232,21.9878011 L291.088232,19 M301.7998,21.9915546 L301.7998,19 M312.416274,21.9962465 L312.416274,19 M323.127842,21.9962465 L323.127842,19 M333.744316,21.9915546 L333.744316,19 M344.407837,21.9962465 L344.407837,19 M355.024311,21.9915546 L355.024311,19 M365.735879,21.9962465 L365.735879,19 M376.352353,21.9962465 L376.352353,19 M387.063921,21.9915546 L387.063921,19 M397.680395,21.9915546 L397.680395,19 M408.343916,21.9915546 L408.343916,19 M419.008437,21.9962465 L419.008437,19 M429.671958,21.9878011 L429.671958,19 M440.336479,22 L440.336479,19 M451,21.9915546 L451,19" id="Stroke-81" stroke="#005795" stroke-width="0.104"></path>
        <line x1="21" y1="18.5" x2="509" y2="18.5" id="Stroke-82" stroke="#005795" stroke-width="0.75"></line>
        <path d="M47,314 L483,314 L47,314 Z M47.1250864,320 L483,320 L47.1250864,320 Z" id="Stroke-83" stroke="#005795" stroke-width="0.104"></path>
        <path d="M482.95898,302 L47.2181051,302 L482.95898,302 Z M483,272 L47,272 L483,272 Z" id="Stroke-84" stroke="#005795" stroke-width="0.75"></path>
        <path d="M48,266 L483,266 L48,266 Z M48,260 L483,260 L48,260 Z" id="Stroke-85" stroke="#005795" stroke-width="0.104"></path>
        <path d="M450,277.5 L49,277.5 L450,277.5 Z" id="Fill-86" fill="#FFFFFE"></path>
        <path d="M450,277.5 L49,277.5 L450,277.5 Z" id="Stroke-87" stroke="#1A1919" stroke-width="0.104"></path>
        <path d="M483,278 L47.3642021,278 L483,278 Z M482.98199,283.976732 L47.2931627,283.976732 L482.98199,283.976732 Z M482.940967,289.990492 L47.2781544,289.990492 L482.940967,289.990492 Z M47.2061144,295.968225 L482.940967,295.968225 L47.2061144,295.968225 Z M47,307.996747 L482.940967,307.996747 L47,307.996747 Z M47,326 L482.940967,326 L47,326 Z" id="Stroke-88" stroke="#005795" stroke-width="0.104"></path>
        <path d="M483,241.5 L47,241.5 L483,241.5 Z" id="Stroke-89" stroke="#005795" stroke-width="0.75"></path>
        <path d="M48,248 L483,248 L48,248 Z M48.0979007,254 L483,254 L48.0979007,254 Z" id="Stroke-90" stroke="#005795" stroke-width="0.104"></path>
        <path d="M483,362 L47,362 L483,362 Z M483,332 L47,332 L483,332 Z" id="Stroke-91" stroke="#005795" stroke-width="0.75"></path>
        <path d="M47.1540919,356.031661 L482.987993,356.031661 L47.1540919,356.031661 Z M47.2781659,368.024403 L483,368.024403 L47.2781659,368.024403 Z M47.1540919,374.002253 L482.987993,374.002253 L47.1540919,374.002253 Z M47.1540919,386 L482.987993,386 L47.1540919,386 Z M47,338 L482.987993,338 L47,338 Z M47.1540919,343.978851 L482.987993,343.978851 L47.1540919,343.978851 Z M47.1540919,349.994744 L482.987993,349.994744 L47.1540919,349.994744 Z M47.1540919,379.984107 L482.987993,379.984107 L47.1540919,379.984107 Z" id="Stroke-92" stroke="#005795" stroke-width="0.104"></path>
        <path d="M483,421.5 L47,421.5 L483,421.5 Z" id="Stroke-93" stroke="#005795" stroke-width="0.75"></path>
        <path d="M48,415.5 L483,415.5 L48,415.5 Z" id="Stroke-94" stroke="#005795" stroke-width="0.104"></path>
        <polyline id="Stroke-95" stroke="#1A1919" stroke-width="0.104" points="483 427.5 48 427.5 483 427.5"></polyline>
        <path d="M483,398 L47.1241213,398 L483,398 L483,398 Z M47,403.982472 L483,403.982472 L47,403.982472 Z M47.1241213,410 L483,410 L47.1241213,410 Z" id="Stroke-96" stroke="#005795" stroke-width="0.104"></path>
        <path d="M483,211.5 L47,211.5 L483,211.5 Z" id="Stroke-97" stroke="#005795" stroke-width="0.75"></path>
        <path d="M47.2932004,194 L482.950966,194 L47.2932004,194 Z M47.2141464,199.97738 L482.770843,199.97738 L47.2141464,199.97738 Z M47.2141464,205.991793 L483,205.991793 L47.2141464,205.991793 Z M47.0010007,217.946552 L483,217.946552 L47.0010007,217.946552 Z M47,224 L483,224 L47,224 Z" id="Stroke-98" stroke="#005795" stroke-width="0.104"></path>
        <path d="M483,181.5 L47,181.5 L483,181.5 Z" id="Stroke-99" stroke="#005795" stroke-width="0.75"></path>
        <path d="M47.0390298,176 L483,176 L47.0390298,176 Z M47.2852178,187.995268 L482.589687,187.995268 L47.2852178,187.995268 Z M482.985989,433.982347 L47,433.982347 L482.985989,433.982347 Z M47.1831399,428.00273 L482.985989,428.00273 L47.1831399,428.00273 Z M482.985989,440 L72.2102546,440 L482.985989,440 L482.985989,440 Z" id="Stroke-100" stroke="#005795" stroke-width="0.104"></path>
        <path d="M47.177807,572.016352 L482.966991,572.016352 M47.177807,631.987987 L483,631.987987 M47.1377955,542 L482.966991,542 M47.177807,601.985651 L482.966991,601.985651 M482.966991,650 L20,650" id="Stroke-101" stroke="#005795" stroke-width="0.75"></path>
        <path d="M482.934972,644 L47.0800351,644 M482.967986,637.946226 L47,637.946226 M482.934972,625.988845 L47.0400175,625.988845 M482.901957,619.973113 L47.0400175,619.973113 M482.967986,613.994422 L47.0800351,613.994422 M482.967986,607.977689 L47,607.977689 M483,595.984268 L47.0800351,595.984268 M483,590.005578 L47.0800351,590.005578 M482.967986,583.990847 L47.0400175,583.990847 M482.869943,577.975115 L47.0400175,577.975115 M482.934972,565.979692 L47.0400175,565.979692 M482.934972,559.962959 L47.0400175,559.962959 M482.934972,554.303625 L47.0400175,554.303625 M482.901957,547.969537 L47.0400175,547.969537 M482.934972,536.010154 L47.0800351,536.010154 M482.934972,529.95638 L47.0800351,529.95638 M482.869943,523.97869 L47.0800351,523.97869 M482.967986,518 L47.0800351,518" id="Stroke-102" stroke="#005795" stroke-width="0.104"></path>
        <path d="M21,452 L21,650 L21,452 Z M72.7889369,452.135075 L483,452.135075 L72.7889369,452.135075 Z M47.6238338,482.124736 L482.934057,482.124736 L47.6238338,482.124736 Z" id="Stroke-103" stroke="#005795" stroke-width="0.75"></path>
        <path d="M483,487.986993 L47.3070549,487.986993 L483,487.986993 Z M483,494 L47.4370782,494 L483,494 Z M47,476 L68.4058295,476 L47,476 Z M68.4058295,476 L483,476 L68.4058295,476 Z M47,476 L68.4058295,476 L47,476 Z M68.4058295,476 L483,476 L68.4058295,476 Z" id="Stroke-104" stroke="#005795" stroke-width="0.104"></path>
        <path d="M158,469.5 L456,469.5 L158,469.5 Z" id="Fill-105" fill="#FFFFFE"></path>
        <path d="M158,469.5 L456,469.5 L158,469.5 Z" id="Stroke-106" stroke="#1A1919" stroke-width="0.104"></path>
        <path d="M47,469.5 L483,469.5 L47,469.5 Z" id="Stroke-107" stroke="#005795" stroke-width="0.104"></path>
        <path d="M170,463.5 L456,463.5 L170,463.5 Z" id="Fill-108" fill="#FFFFFE"></path>
        <path d="M170,463.5 L456,463.5 L170,463.5 Z" id="Stroke-109" stroke="#1A1919" stroke-width="0.104"></path>
        <path d="M47.042039,464 L483,464 L47.042039,464 Z M482.933939,458.095897 L47,458.095897 L482.933939,458.095897 Z M482.901909,446 L72.2023526,446 L482.901909,446 Z" id="Stroke-110" stroke="#005795" stroke-width="0.104"></path>
        <path d="M47,511.5 L483,511.5 L47,511.5 Z" id="Stroke-111" stroke="#005795" stroke-width="0.75"></path>
        <path d="M482.966971,506 L47,506 L482.966971,506 Z M483,500 L47.1301149,500 L483,500 Z" id="Stroke-112" stroke="#005795" stroke-width="0.104"></path>
        <line x1="21" y1="451.484" x2="73" y2="451.516" id="Stroke-113" stroke="#005795" stroke-width="0.75"></line>
        <polygon id="Fill-114" fill="#FFFFFE" points="60 636 70 636 70 627 60 627"></polygon>
        <text id="2" font-family="LucidaGrande, Lucida Grande" font-size="10.9999" font-weight="normal" fill="#005795">
            <tspan x="62" y="633">2</tspan>
        </text>
        <polygon id="Fill-115" fill="#FFFFFE" points="60 606 70 606 70 597 60 597"></polygon>
        <text id="3" font-family="LucidaGrande, Lucida Grande" font-size="10.9999" font-weight="normal" fill="#005795">
            <tspan x="62" y="603">3</tspan>
        </text>
        <polygon id="Fill-116" fill="#FFFFFE" points="60 576 70 576 70 567 60 567"></polygon>
        <text id="4" font-family="LucidaGrande, Lucida Grande" font-size="10.9999" font-weight="normal" fill="#005795">
            <tspan x="62" y="574">4</tspan>
        </text>
        <polygon id="Fill-117" fill="#FFFFFE" points="60 546 70 546 70 537 60 537"></polygon>
        <text id="5" font-family="LucidaGrande, Lucida Grande" font-size="10.9999" font-weight="normal" fill="#005795">
            <tspan x="62" y="544">5</tspan>
        </text>
        <polygon id="Fill-118" fill="#FFFFFE" points="60 517 70 517 70 508 60 508"></polygon>
        <text id="6" font-family="LucidaGrande, Lucida Grande" font-size="10.9999" font-weight="normal" fill="#005795">
            <tspan x="62" y="514">6</tspan>
        </text>
        <polygon id="Fill-119" fill="#FFFFFE" points="60 486 70 486 70 477 60 477"></polygon>
        <text id="7" font-family="LucidaGrande, Lucida Grande" font-size="10.9999" font-weight="normal" fill="#005795">
            <tspan x="62" y="483">7</tspan>
        </text>
        <polygon id="Fill-120" fill="#FFFFFE" points="52 649 69 649 69 638 52 638"></polygon>
        <polygon id="Fill-121" fill="#FFFFFE" points="27 512 40 512 40 502 27 502"></polygon>
        <polygon id="Fill-122" fill="#FFFFFE" points="28 485 41 485 41 475 28 475"></polygon>
        <path d="M285.5,19 L285.5,649 L285.5,19 Z" id="Stroke-123" stroke="#005795" stroke-width="0.104"></path>
        <path d="M455.409104,19 L455.409104,649.75297 L455.409104,19 Z M482.841336,649.903988 L482.841336,152.072028 L482.841336,649.903988 Z M509,650 L509,151.839 L509,650 Z M47,649.850982 L47,452.371197 L47,649.850982 Z M423.598921,649.758971 L423.598921,19.1810218 L423.598921,649.758971 Z" id="Stroke-124" stroke="#005795" stroke-width="0.75"></path>
        <path d="M412.713061,649.951989 L412.713061,19.4861132 L412.713061,649.951989 Z M434,649.951989 L434,19.4060946 L434,649.951989 Z M402,650 L402,19 L402,650 Z" id="Stroke-125" stroke="#005795" stroke-width="0.104"></path>
        <path d="M327.976954,650 L327.976954,19.3140856 L327.976954,650 Z M296,649.804947 L296,19.2850777 L296,649.804947 Z M360,650 L360,19 L360,650 Z" id="Stroke-126" stroke="#005795" stroke-width="0.75"></path>
        <path d="M307,19 L307,650 L307,19 Z M317.667334,650 L317.667334,19 L317.667334,650 Z M339,650 L339,19.3422636 L339,650 Z" id="Stroke-127" stroke="#005795" stroke-width="0.104"></path>
        <path d="M391.5,650 L391.5,19 L391.5,650 Z" id="Stroke-128" stroke="#005795" stroke-width="0.75"></path>
        <path d="M370.306383,650 L370.306383,19.3040617 L370.306383,650 Z M380.936523,650 L380.936523,19.1210246 L380.936523,650 Z M349,19.3260661 L349,650 L349,19.3260661 Z M445,649.854971 L445,19 L445,649.854971 Z" id="Stroke-129" stroke="#005795" stroke-width="0.104"></path>
        <path d="M232.01637,650 L232.01637,19 L232.01637,650 Z M199.98363,649.992996 L199.98363,19.0120067 L199.98363,649.992996 Z M264,650 L264,19.1030573 L264,650 Z M168,649.798888 L168,19.0220122 L168,649.798888 Z" id="Stroke-130" stroke="#005795" stroke-width="0.75"></path>
        <path d="M221.666444,650 L221.666444,19.1260497 L221.666444,650 Z M242.998665,650 L242.998665,19.2040805 L242.998665,650 Z M189.71417,648.788522 L189.71417,19 L189.71417,648.788522 Z M211.047392,649.999 L211.047392,19 L211.047392,649.999 Z M275,650 L275,19.0460182 L275,650 Z M253.660771,650 L253.660771,19.2050809 L253.660771,650 Z M179,649.606845 L179,545.779874 L179,649.606845 Z M179,545.779874 L179,480.776222 L179,545.779874 Z M179,480.776222 L179,19.0120047 L179,480.776222 Z M179,649.606845 L179,545.779874 L179,649.606845 Z M179,545.779874 L179,480.776222 L179,545.779874 Z M179,480.776222 L179,19.0120047 L179,480.776222 Z" id="Stroke-131" stroke="#005795" stroke-width="0.104"></path>
        <path d="M104.5,650 L104.5,19 L104.5,650 Z" id="Stroke-132" stroke="#005795" stroke-width="0.75"></path>
        <path d="M115,649.69712 L115,19.6037598 L115,649.69712 Z M83,650 L83,19.5008008 L83,650 Z M125.666333,649.69712 L125.666333,19 L125.666333,649.69712 Z M147,649.505197 L147,19.3968421 L147,649.505197 Z M93.7153942,650 L93.7153942,19.5008008 L93.7153942,650 Z" id="Stroke-133" stroke="#005795" stroke-width="0.104"></path>
        <path d="M136.5,649 L136.5,19 L136.5,649 Z" id="Stroke-134" stroke="#005795" stroke-width="0.75"></path>
        <path d="M157.5,649 L157.5,19 L157.5,649 Z" id="Stroke-135" stroke="#005795" stroke-width="0.104"></path>
        <line x1="21" y1="439.484" x2="73" y2="439.516" id="Stroke-136" stroke="#005795" stroke-width="0.75"></line>
        <polygon id="Fill-137" fill="#FFFFFE" points="27 560 39 560 39 550 27 550"></polygon>
        <text id="10" font-family="LucidaGrande, Lucida Grande" font-size="10.9999" font-weight="normal" fill="#005795">
            <tspan x="27" y="557">10</tspan>
        </text>
        <polygon id="Fill-138" fill="#FFFFFE" points="27 533 40 533 40 523 27 523"></polygon>
        <text id="12" font-family="LucidaGrande, Lucida Grande" font-size="10.9999" font-weight="normal" fill="#005795">
            <tspan x="27" y="530">12</tspan>
        </text>
        <polygon id="Fill-139" fill="#FFFFFE" points="28 506 40 506 40 496 28 496"></polygon>
        <text id="14" font-family="LucidaGrande, Lucida Grande" font-size="10.9999" font-weight="normal" fill="#005795">
            <tspan x="27" y="502">14</tspan>
        </text>
        <polygon id="Fill-140" fill="#FFFFFE" points="28 479 41 479 41 469 28 469"></polygon>
        <text id="16" font-family="LucidaGrande, Lucida Grande" font-size="10.9999" font-weight="normal" fill="#005795">
            <tspan x="27" y="475">16</tspan>
        </text>
        <polygon id="Fill-141" fill="#FFFFFE" points="29 588 40 588 40 578 29 578"></polygon>
        <text id="8" font-family="LucidaGrande, Lucida Grande" font-size="10.9999" font-weight="normal" fill="#005795">
            <tspan x="32" y="585">8</tspan>
        </text>
        <polygon id="Fill-142" fill="#FFFFFE" points="29 614 40 614 40 604 29 604"></polygon>
        <text id="6" font-family="LucidaGrande, Lucida Grande" font-size="10.9999" font-weight="normal" fill="#005795">
            <tspan x="32" y="611">6</tspan>
        </text>
        <path d="M174,646.008445 L174,649 M163.286608,646.003754 L163.286608,649 M152.667334,646.003754 L152.667334,649 M141.95194,646.008445 L141.95194,649 M131.333667,646.008445 L131.333667,649 M120.667334,646.008445 L120.667334,649 M110,646.003754 L110,649 M99.3336671,646.012199 L99.3336671,649 M88.6663329,646 L88.6663329,649 M78,646.008445 L78,649" id="Stroke-143" stroke="#005795" stroke-width="0.104"></path>
        <text id="kg" font-family="LucidaGrande, Lucida Grande" font-size="10.9999" font-weight="normal" fill="#005795">
            <tspan x="54" y="644">kg</tspan>
        </text>
        <text id="lb" font-family="LucidaGrande, Lucida Grande" font-size="10.9999" font-weight="normal" fill="#005795">
            <tspan x="30" y="644">lb</tspan>
        </text>
        <path d="M47,44.0005023 L482.804949,44.0005023 M47,50 L483,50 M47,38 L482.901974,38" id="Stroke-144" stroke="#005795" stroke-width="0.104"></path>
        <polygon id="Fill-145" fill="#FFFFFE" points="50 67 70 67 70 57 50 57"></polygon>
        <polygon id="Fill-146" fill="#FFFFFE" points="457 66 480 66 480 57 457 57"></polygon>
        <polygon id="Fill-147" fill="#FFFFFE" points="304 487 380 487 380 475 304 475"></polygon>
        <text id="AGE(MONTHS)" font-family="LucidaGrande, Lucida Grande" font-size="9.9999" font-weight="normal" fill="#005795">
            <tspan x="307" y="482">AG</tspan>
            <tspan x="321.125835" y="482" letter-spacing="2.72285">E</tspan>
            <tspan x="329.268553" y="482">(MONTHS)</tspan>
        </text>
        <polygon id="Fill-148" fill="#FFFFFE" points="194 499 208 499 208 489 194 489"></polygon>
        <text id="12" font-family="LucidaGrande, Lucida Grande" font-size="10.9999" font-weight="normal" fill="#005795">
            <tspan x="194" y="496">12</tspan>
        </text>
        <polygon id="Fill-149" fill="#FFFFFE" points="226 499 240 499 240 489 226 489"></polygon>
        <text id="15" font-family="LucidaGrande, Lucida Grande" font-size="10.9999" font-weight="normal" fill="#005795">
            <tspan x="226" y="496">15</tspan>
        </text>
        <polygon id="Fill-150" fill="#FFFFFE" points="258 499 272 499 272 489 258 489"></polygon>
        <text id="18" font-family="LucidaGrande, Lucida Grande" font-size="10.9999" font-weight="normal" fill="#005795">
            <tspan x="258" y="496">18</tspan>
        </text>
        <polygon id="Fill-151" fill="#FFFFFE" points="289 499 303 499 303 489 289 489"></polygon>
        <text id="21" font-family="LucidaGrande, Lucida Grande" font-size="10.9999" font-weight="normal" fill="#005795">
            <tspan x="290" y="496">21</tspan>
        </text>
        <polygon id="Fill-152" fill="#FFFFFE" points="321 499 335 499 335 489 321 489"></polygon>
        <text id="24" font-family="LucidaGrande, Lucida Grande" font-size="10.9999" font-weight="normal" fill="#005795">
            <tspan x="322" y="496">24</tspan>
        </text>
        <polygon id="Fill-153" fill="#FFFFFE" points="353 499 367 499 367 489 353 489"></polygon>
        <text id="27" font-family="LucidaGrande, Lucida Grande" font-size="10.9999" font-weight="normal" fill="#005795">
            <tspan x="354" y="496">27</tspan>
        </text>
        <polygon id="Fill-154" fill="#FFFFFE" points="384 499 398 499 398 489 384 489"></polygon>
        <text id="30" font-family="LucidaGrande, Lucida Grande" font-size="10.9999" font-weight="normal" fill="#005795">
            <tspan x="386" y="496">30</tspan>
        </text>
        <polygon id="Fill-155" fill="#FFFFFE" points="417 499 431 499 431 489 417 489"></polygon>
        <text id="33" font-family="LucidaGrande, Lucida Grande" font-size="10.9999" font-weight="normal" fill="#005795">
            <tspan x="419" y="496">33</tspan>
        </text>
        <polygon id="Fill-156" fill="#FFFFFE" points="449 499 463 499 463 489 449 489"></polygon>
        <text id="36" font-family="LucidaGrande, Lucida Grande" font-size="10.9999" font-weight="normal" fill="#005795">
            <tspan x="450" y="496">36</tspan>
        </text>
        <polygon id="Fill-157" fill="#FFFFFE" points="464 494 477 494 477 482 464 482"></polygon>
        <text id="kg" font-family="LucidaGrande, Lucida Grande" font-size="10.9999" font-weight="normal" fill="#005795">
            <tspan x="465" y="489">kg</tspan>
        </text>
        <path d="M483.009037,638.190984 C484.404727,638.191986 485.800417,638.191986 487.195103,638.190984 M483,645 L509,645 M483.009037,611 C484.404727,611 485.800417,611 487.195103,611" id="Stroke-158" stroke="#1A1919" stroke-width="0.104"></path>
        <path d="M483,630.500375 C491.667673,630.499375 500.333333,630.499375 509,630.500375" id="Stroke-159" stroke="#1A1919" stroke-width="0.75"></path>
        <path d="M483.009037,624 C484.404727,624 485.800417,624 487.195103,624 M483,617 L509,617" id="Stroke-160" stroke="#1A1919" stroke-width="0.104"></path>
        <path d="M483,603.5 C491.667336,603.5 500.333668,603.5 509,603.5" id="Stroke-161" stroke="#1A1919" stroke-width="0.75"></path>
        <path d="M483.009037,583 C484.404727,583 485.800417,583 487.195103,583 M483.009037,597 C484.404727,597 485.800417,597 487.195103,597 M483,590.006702 L509,590.006702" id="Stroke-162" stroke="#1A1919" stroke-width="0.104"></path>
        <path d="M483,576.5 C491.667336,576.5 500.333668,576.5 509,576.5" id="Stroke-163" stroke="#1A1919" stroke-width="0.75"></path>
        <path d="M483.009037,515.808014 C484.404727,515.808014 485.800417,515.808014 487.195103,515.808014 M483,509 L509,509 M483.009037,543 C484.404727,542.998998 485.800417,542.998998 487.195103,543" id="Stroke-164" stroke="#1A1919" stroke-width="0.104"></path>
        <path d="M483,522.5 C491.667673,522.5 500.333333,522.5 509,522.5" id="Stroke-165" stroke="#1A1919" stroke-width="0.75"></path>
        <path d="M483.009037,529 C484.404727,529 485.800417,529 487.195103,529 M483,536 L509,536" id="Stroke-166" stroke="#1A1919" stroke-width="0.104"></path>
        <path d="M483,549.5 C491.667336,549.5 500.333668,549.5 509,549.5" id="Stroke-167" stroke="#1A1919" stroke-width="0.75"></path>
        <path d="M483.009037,570 C484.404727,570 485.800417,570 487.195103,570 M483.009037,556.396995 C484.404727,556.396995 485.800417,556.396995 487.195103,556.396995 M483,563.191986 L509,563.191986 M483.009037,502 C484.404727,502 485.800417,502 487.195103,502" id="Stroke-168" stroke="#1A1919" stroke-width="0.104"></path>
        <line x1="179" y1="605.5" x2="488" y2="605.5" id="Stroke-169" stroke="#1A1919" stroke-width="0.8"></line>
        <polygon id="Fill-170" fill="#FFFFFE" points="179 650 509 650 509 500 179 500"></polygon>
        <polygon id="Stroke-171" stroke="#005795" stroke-width="0.8" points="179 650 509 650 509 500 179 500"></polygon>
        <text id="Mother’sStature" font-family="LucidaGrande, Lucida Grande" font-size="8.7057" font-weight="normal" fill="#005795">
            <tspan x="184" y="511">Mother’</tspan>
            <tspan x="216.67188" y="511" letter-spacing="2.2975722">s</tspan>
            <tspan x="223.407319" y="511">Stature</tspan>
        </text>
        <text id="Father’sStature" font-family="LucidaGrande, Lucida Grande" font-size="8.7057" font-weight="normal" letter-spacing="-0.1844766" fill="#005795">
            <tspan x="184" y="524">F</tspan>
            <tspan x="188.482935" y="524">ather’</tspan>
            <tspan x="213.116495" y="524" letter-spacing="2.2975722">s</tspan>
            <tspan x="219.851934" y="524">Stature</tspan>
        </text>
        <text id="Gestational" font-family="LucidaGrande, Lucida Grande" font-size="8.7057" font-weight="normal" fill="#005795">
            <tspan x="316" y="511">Gestational</tspan>
        </text>
        <text id="DateAgeWeightLengthHeadCirc." font-family="LucidaGrande, Lucida Grande" font-size="8.7057" font-weight="normal" fill="#005795">
            <tspan x="190" y="536">Dat</tspan>
            <tspan x="204.584598" y="536" letter-spacing="25.3705637">e</tspan>
            <tspan x="234.805359" y="536">Ag</tspan>
            <tspan x="246.240092" y="536" letter-spacing="21.1611431">e</tspan>
            <tspan x="272.251432" y="536" letter-spacing="-0.1844766">W</tspan>
            <tspan x="279.51441" y="536">eigh</tspan>
            <tspan x="297.712213" y="536" letter-spacing="17.9495732">t</tspan>
            <tspan x="318.917922" y="536">Lengt</tspan>
            <tspan x="342.497277" y="536" letter-spacing="16.8661924">h</tspan>
            <tspan x="364.766274" y="536">Hea</tspan>
            <tspan x="380.821659" y="536" letter-spacing="4.5951444">d</tspan>
            <tspan x="390.896124" y="536">Circ.</tspan>
        </text>
        <path d="M221.707546,531.265181 L221.707546,650 M259.709515,531.265181 L259.709515,650 M348.373768,531.265181 L348.373768,650 M179,531 L407.250044,531 M179,540.992802 L509.840845,540.992802 M179,551.886217 L509.840845,551.886217 M179,562.780632 L509.840845,562.780632 M179,583.816951 L509.840845,583.816951 M179,594.710366 L509.840845,594.710366 M179,573.298792 L510,573.298792" id="Stroke-172" stroke="#005795" stroke-width="0.8"></path>
        <path d="M247.650141,512 L302.620433,512 M244,525.949421 L302.620433,525.949421 M335.127014,526 L367,526" id="Stroke-173" stroke="#005795" stroke-width="0.5"></path>
        <text id="Age:Weeks" font-family="LucidaGrande, Lucida Grande" font-size="8.7057" font-weight="normal" fill="#005795">
            <tspan x="316" y="524">Age</tspan>
            <tspan x="332.28493" y="524" letter-spacing="37.1745505">:</tspan>
            <tspan x="372.214018" y="524" letter-spacing="-0.1844766">W</tspan>
            <tspan x="379.476996" y="524">eeks</tspan>
        </text>
        <text id="Birth" font-family="LucidaGrande, Lucida Grande" font-size="8.7057" font-weight="normal" fill="#005795">
            <tspan x="232" y="548">Birth</tspan>
        </text>
        <line x1="406.5" y1="500" x2="406.5" y2="650" id="Stroke-174" stroke="#005795" stroke-width="0.8"></line>
        <text id="Comment" font-family="LucidaGrande, Lucida Grande" font-size="8.7057" font-weight="normal" fill="#005795">
            <tspan x="437" y="524">Comment</tspan>
        </text>
        <path d="M178,605 L509,605 M178,615.843 L509,615.843 M178,637 L508.916879,637 M178,626.606897 L509,626.606897" id="Stroke-175" stroke="#005795" stroke-width="0.8"></path>
        <line x1="47" y1="26.5" x2="483" y2="26.5" id="Stroke-176" stroke="#005795" stroke-width="0.104"></line>
        <line x1="47" y1="32.5" x2="483" y2="32.5" id="Stroke-177" stroke="#005795" stroke-width="0.75"></line>
        <polygon id="Fill-178" fill="#FFFFFE" points="234 36 307 36 307 26 234 26"></polygon>
        <text id="AGE(MONTHS)" font-family="LucidaGrande, Lucida Grande" font-size="9.9993" font-weight="normal" fill="#005795">
            <tspan x="235" y="32">AG</tspan>
            <tspan x="249.124988" y="32" letter-spacing="2.722708">E</tspan>
            <tspan x="257.267238" y="32">(MONTHS)</tspan>
        </text>
        <polygon id="Fill-179" fill="#FFFFFE" points="464 396 478 396 478 387 464 387"></polygon>
        <polygon id="Fill-180" fill="#FFFFFE" points="464 366 478 366 478 357 464 357"></polygon>
        <polygon id="Fill-181" fill="#FFFFFE" points="464 336 478 336 478 327 464 327"></polygon>
        <polygon id="Fill-182" fill="#FFFFFE" points="464 306 478 306 478 297 464 297"></polygon>
        <polygon id="Fill-183" fill="#FFFFFE" points="464 277 478 277 478 268 464 268"></polygon>
        <polygon id="Fill-184" fill="#FFFFFE" points="464 246 478 246 478 237 464 237"></polygon>
        <polygon id="Fill-185" fill="#FFFFFE" points="464 216 478 216 478 207 464 207"></polygon>
        <polygon id="Fill-186" fill="#FFFFFE" points="465 186 478 186 478 177 465 177"></polygon>
        <polygon id="Fill-187" fill="#FFFFFE" points="468 456 477 456 477 447 468 447"></polygon>
        <polygon id="Fill-188" fill="#FFFFFE" points="469 426 477 426 477 417 469 417"></polygon>
        <text id="8" font-family="LucidaGrande, Lucida Grande" font-size="10.9997" font-weight="normal" fill="#005795">
            <tspan x="469" y="453">8</tspan>
        </text>
        <text id="9" font-family="LucidaGrande, Lucida Grande" font-size="10.9997" font-weight="normal" fill="#005795">
            <tspan x="469" y="425">9</tspan>
        </text>
        <text id="10" font-family="LucidaGrande, Lucida Grande" font-size="10.9997" font-weight="normal" fill="#005795">
            <tspan x="465" y="394">10</tspan>
        </text>
        <text id="11" font-family="LucidaGrande, Lucida Grande" font-size="10.9997" font-weight="normal" fill="#005795">
            <tspan x="465" y="365">11</tspan>
        </text>
        <text id="12" font-family="LucidaGrande, Lucida Grande" font-size="10.9997" font-weight="normal" fill="#005795">
            <tspan x="465" y="333">12</tspan>
        </text>
        <text id="13" font-family="LucidaGrande, Lucida Grande" font-size="10.9997" font-weight="normal" fill="#005795">
            <tspan x="465" y="304">13</tspan>
        </text>
        <text id="14" font-family="LucidaGrande, Lucida Grande" font-size="10.9997" font-weight="normal" fill="#005795">
            <tspan x="465" y="275">14</tspan>
        </text>
        <text id="15" font-family="LucidaGrande, Lucida Grande" font-size="10.9997" font-weight="normal" fill="#005795">
            <tspan x="465" y="244">15</tspan>
        </text>
        <text id="16" font-family="LucidaGrande, Lucida Grande" font-size="10.9997" font-weight="normal" fill="#005795">
            <tspan x="465" y="215">16</tspan>
        </text>
        <text id="17" font-family="LucidaGrande, Lucida Grande" font-size="10.9997" font-weight="normal" fill="#005795">
            <tspan x="465" y="184">17</tspan>
        </text>
        <polygon id="Fill-189" fill="#FFFFFE" points="463 96 479 96 479 87 463 87"></polygon>
        <polygon id="Fill-190" fill="#FFFFFE" points="463 126 479 126 479 117 463 117"></polygon>
        <text id="90" font-family="LucidaGrande, Lucida Grande" font-size="10.9997" font-weight="normal" fill="#005795">
            <tspan x="465" y="124">90</tspan>
        </text>
        <text id="95" font-family="LucidaGrande, Lucida Grande" font-size="10.9997" font-weight="normal" fill="#005795">
            <tspan x="465" y="94">95</tspan>
        </text>
        <text id="100" font-family="LucidaGrande, Lucida Grande" font-size="10.9997" font-weight="normal" fill="#005795">
            <tspan x="459" y="64">100</tspan>
        </text>
        <polygon id="Fill-191" fill="#FFFFFE" points="462 30 478 30 478 22 462 22"></polygon>
        <text id="cm" font-family="LucidaGrande, Lucida Grande" font-size="10.9999" font-weight="normal" fill="#005795">
            <tspan x="463" y="27">cm</tspan>
        </text>
        <polygon id="Fill-192" fill="#FFFFFE" points="52 29 68 29 68 21 52 21"></polygon>
        <text id="cm" font-family="LucidaGrande, Lucida Grande" font-size="10.9999" font-weight="normal" fill="#005795">
            <tspan x="52" y="27">cm</tspan>
        </text>
        <text id="100" font-family="LucidaGrande, Lucida Grande" font-size="10.9997" font-weight="normal" fill="#005795">
            <tspan x="50" y="64">100</tspan>
        </text>
        <polygon id="Fill-193" fill="#FFFFFE" points="488 343 503 343 503 333 488 333"></polygon>
        <polygon id="Fill-194" fill="#FFFFFE" points="488 316 503 316 503 306 488 306"></polygon>
        <polygon id="Fill-195" fill="#FFFFFE" points="488 289 503 289 503 279 488 279"></polygon>
        <polygon id="Fill-196" fill="#FFFFFE" points="488 262 503 262 503 252 488 252"></polygon>
        <polygon id="Fill-197" fill="#FFFFFE" points="488 235 503 235 503 225 488 225"></polygon>
        <polygon id="Fill-198" fill="#FFFFFE" points="488 398 503 398 503 388 488 388"></polygon>
        <polygon id="Fill-199" fill="#FFFFFE" points="488 370 503 370 503 360 488 360"></polygon>
        <polygon id="Fill-200" fill="#FFFFFE" points="490 493 502 493 502 483 490 483"></polygon>
        <text id="lb" font-family="LucidaGrande, Lucida Grande" font-size="10.9999" font-weight="normal" fill="#005795">
            <tspan x="492" y="489">lb</tspan>
        </text>
        <polygon id="Fill-201" fill="#FFFFFE" points="488 479 504 479 504 469 488 469"></polygon>
        <polygon id="Fill-202" fill="#FFFFFE" points="490 457 503 457 503 447 490 447"></polygon>
        <polygon id="Fill-203" fill="#FFFFFE" points="488 452 503 452 503 442 488 442"></polygon>
        <polygon id="Fill-204" fill="#FFFFFE" points="488 425 503 425 503 415 488 415"></polygon>
        <text id="16" font-family="LucidaGrande, Lucida Grande" font-size="10.9997" font-weight="normal" fill="#005795">
            <tspan x="490" y="475">16</tspan>
        </text>
        <text id="18" font-family="LucidaGrande, Lucida Grande" font-size="10.9997" font-weight="normal" fill="#005795">
            <tspan x="490" y="448">18</tspan>
        </text>
        <text id="20" font-family="LucidaGrande, Lucida Grande" font-size="10.9997" font-weight="normal" fill="#005795">
            <tspan x="490" y="421">20</tspan>
        </text>
        <text id="22" font-family="LucidaGrande, Lucida Grande" font-size="10.9997" font-weight="normal" fill="#005795">
            <tspan x="490" y="394">22</tspan>
        </text>
        <text id="24" font-family="LucidaGrande, Lucida Grande" font-size="10.9997" font-weight="normal" fill="#005795">
            <tspan x="490" y="367">24</tspan>
        </text>
        <text id="26" font-family="LucidaGrande, Lucida Grande" font-size="10.9997" font-weight="normal" fill="#005795">
            <tspan x="490" y="340">26</tspan>
        </text>
        <text id="28" font-family="LucidaGrande, Lucida Grande" font-size="10.9997" font-weight="normal" fill="#005795">
            <tspan x="490" y="313">28</tspan>
        </text>
        <text id="30" font-family="LucidaGrande, Lucida Grande" font-size="10.9997" font-weight="normal" fill="#005795">
            <tspan x="490" y="285">30</tspan>
        </text>
        <text id="32" font-family="LucidaGrande, Lucida Grande" font-size="10.9997" font-weight="normal" fill="#005795">
            <tspan x="490" y="258">32</tspan>
        </text>
        <text id="34" font-family="LucidaGrande, Lucida Grande" font-size="10.9997" font-weight="normal" fill="#005795">
            <tspan x="490" y="232">34</tspan>
        </text>
        <polygon id="Fill-205" fill="#FFFFFE" points="488 208 503 208 503 198 488 198"></polygon>
        <text id="36" font-family="LucidaGrande, Lucida Grande" font-size="10.9997" font-weight="normal" fill="#005795">
            <tspan x="490" y="205">36</tspan>
        </text>
        <polygon id="Fill-206" fill="#FFFFFE" points="488 181 503 181 503 171 488 171"></polygon>
        <text id="38" font-family="LucidaGrande, Lucida Grande" font-size="10.9997" font-weight="normal" fill="#005795">
            <tspan x="490" y="178">38</tspan>
        </text>
        <polyline id="Stroke-207" stroke="#005795" stroke-width="1.5" stroke-linejoin="round" points="73 562 78.3326584 544.904038 88.9659952 513.216452 99.599332 484.549687 110.233668 458.732582 120.867005 435.506897 131.500342 414.525307 142.165659 395.702733 152.798995 378.606771 163.433332 363.237421 174.066668 349.336442 184.700005 336.815751 195.333342 325.419111 205.967678 315.057436 216.632995 305.559568 227.266332 296.839427 237.899669 288.89601 248.534005 281.470077 259.167342 274.476547 269.800678 268.0005 280.465995 261.783696 291.099332 255.912214 301.732669 250.213894 312.367005 244.687734 323.000342 239.247655 333.633679 233.980737 344.298995 228.627739 354.932332 223.360822 360.23401 220.770403 365.566668 218.093904 386.833342 207.386907 397.467678 201.947829 408.131996 196.335589 418.734352 190.722348 424.06701 187.873688 429.399669 184.937947 440.033005 179.066465 450.667342 173.021821 456 170"></polyline>
        <path d="M73,566.213271 L78.3326584,549.930158 L88.9659952,519.689947 L99.599332,492.465868 L110.233668,467.826474 L120.867005,445.598986 L131.500342,425.611624 L142.165659,407.519831 L152.798995,391.150827 L163.433332,376.418725 L174.066668,363.065853 L184.700005,351.004324 L195.333342,339.97647 L205.967678,329.98229 L216.632995,320.851003 L227.266332,312.493723 L237.899669,304.739669 L248.534005,297.58984 L259.167342,290.869461 L269.800678,284.580528 L280.465995,278.636153 L291.099332,272.950446 L301.732669,267.522408 L312.367005,262.267149 L323.000342,257.09778 L333.633679,252.10119 L344.298995,247.190489 L354.932332,242.192899 L360.23401,239.780993 L365.566668,237.282198 L397.467678,222.292426 L408.131996,217.123057 L418.734352,211.953688 L424.06701,209.283113 L429.399669,206.612539 L440.033005,201.27139 L450.667342,195.756464 L456,193 M73,575 L78.3326584,559.837449 L88.9659952,531.665586 L99.599332,506.251186 L110.233668,483.333583 L120.867005,462.571215 L131.500342,443.789307 L142.165659,426.903966 L152.798995,411.482747 L163.433332,397.612539 L174.066668,385.034673 L184.700005,373.66226 L195.333342,363.237632 L205.967678,353.760789 L216.632995,345.145839 L227.266332,337.219007 L237.899669,329.897399 L248.534005,323.091129 L259.167342,316.801197 L269.800678,310.856822 L280.465995,305.257005 L291.099332,300.001746 L301.732669,294.918267 L312.367005,290.007566 L323.000342,285.269644 L333.633679,280.617611 L344.298995,276.137358 L354.932332,271.571215 L360.23401,269.331088 L365.566668,267.090962 L376.200005,262.697597 L386.833342,258.131454 L397.467678,253.6522 L408.131996,249.086057 L418.734352,244.518916 L429.399669,239.866883 L440.033005,235.12896 L450.667342,230.304149 L456,227.892243" id="Stroke-208" stroke="#005795" stroke-width="0.75" stroke-linejoin="round"></path>
        <polyline id="Stroke-209" stroke="#005795" stroke-width="1.5" stroke-linejoin="round" points="73 586 78.3326584 571.755789 88.9659952 545.511134 99.599332 521.68338 110.233668 500.187462 120.867005 480.590038 131.500342 462.978177 142.165659 447.007608 152.798995 432.590261 163.433332 419.467933 174.066668 407.640625 184.700005 396.849131 195.333342 387.093453 205.967678 378.115387 216.632995 370 227.266332 362.490089 237.899669 355.583654 248.534005 349.280693 259.167342 343.324005 269.800678 337.799657 280.465995 332.532512 291.099332 327.61264 301.732669 322.863902 312.367005 318.374369 323.000342 313.971904 333.633679 309.655507 344.298995 305.511245 354.932332 301.366983 360.23401 299.296354 365.566668 297.30979 386.833342 289.194403 397.467678 285.051142 408.131996 280.992948 418.734352 276.849687 429.399669 272.705426 440.033005 268.475096 450.667342 264.158699 456 262"></polyline>
        <path d="M73,596.692165 L78.3326584,583.313078 L88.9659952,558.368001 L99.599332,535.753332 L110.233668,515.296967 L120.867005,496.73875 L131.500342,479.993629 L142.165659,464.802447 L152.798995,451.165204 L163.433332,438.821744 L174.066668,427.599961 L184.700005,417.501857 L195.333342,408.265274 L205.967678,399.894215 L216.632995,392.211571 L227.266332,385.220345 L237.899669,378.746432 L248.534005,372.790832 L259.167342,367.180441 L269.800678,362.001311 L280.465995,357.167389 L291.099332,352.506572 L301.732669,348.104912 L312.367005,343.875355 L323.000342,339.731851 L333.633679,335.761451 L344.298995,331.877103 L354.932332,328.079808 L360.23401,326.18066 L365.566668,324.281512 L376.200005,320.570269 L386.833342,316.771973 L397.467678,313.06073 L408.131996,309.262434 L418.734352,305.551191 L424.06701,303.565991 L429.399669,301.666843 L440.033005,297.869548 L450.667342,293.9852 L456,292 M73,608 L78.3326584,594.965121 L88.9659952,570.624409 L99.599332,548.615106 L110.233668,528.762106 L120.867005,510.895307 L131.500342,494.75355 L142.165659,480.252786 L152.798995,467.132856 L163.433332,455.307708 L174.066668,444.691291 L184.700005,435.023448 L195.333342,426.306179 L205.967678,418.364378 L216.632995,411.114997 L227.266332,404.467979 L237.899669,398.426327 L248.534005,392.729884 L259.167342,387.550754 L269.800678,382.63078 L280.465995,378.056015 L291.099332,373.654354 L301.732669,369.51085 L312.367005,365.54045 L323.000342,361.656102 L333.633679,357.857806 L344.298995,354.232615 L354.932332,350.607424 L360.23401,348.795329 L365.566668,346.982233 L397.467678,336.365816 L408.131996,332.826677 L418.734352,329.288538 L424.06701,327.475442 L429.399669,325.662347 L440.033005,322.037155 L450.667342,318.411964 L456,316.598868" id="Stroke-210" stroke="#005795" stroke-width="0.75" stroke-linejoin="round"></path>
        <polyline id="Stroke-211" stroke="#005795" stroke-width="1.5" stroke-linejoin="round" points="73 616 78.3326584 602.892553 88.9659952 578.575 99.599332 556.757579 110.233668 537.183378 120.867005 519.591489 131.500342 503.809971 142.165659 489.581914 152.798995 476.819347 163.433332 465.350331 174.066668 455.002925 184.700005 445.689161 195.333342 437.239096 205.967678 429.563762 216.632995 422.493218 227.266332 416.111435 237.899669 410.247472 248.534005 404.814359 259.167342 399.814096 269.800678 395.071743 280.465995 390.587301 291.099332 386.361769 301.732669 382.394147 312.367005 378.514495 323.000342 374.720813 333.633679 371.098071 344.298995 367.563299 354.932332 364.027527 360.23401 362.302127 365.566668 360.577726 397.467678 350.23032 408.131996 346.780518 418.734352 343.331716 424.06701 341.606316 429.399669 339.795945 440.033005 336.346143 450.667342 332.810371 456 331"></polyline>
        <polygon id="Fill-212" fill="#FFFFFE" points="435 182 445 182 445 175 435 175"></polygon>
        <text id="95" font-family="LucidaGrande, Lucida Grande" font-size="7.9998" font-weight="normal" fill="#005795">
            <tspan x="436" y="180">95</tspan>
        </text>
        <polygon id="Fill-213" fill="#FFFFFE" points="435 205 445 205 445 198 435 198"></polygon>
        <text id="90" font-family="LucidaGrande, Lucida Grande" font-size="7.9998" font-weight="normal" fill="#005795">
            <tspan x="436" y="202">90</tspan>
        </text>
        <polygon id="Fill-214" fill="#FFFFFE" points="435 239 445 239 445 232 435 232"></polygon>
        <text id="75" font-family="LucidaGrande, Lucida Grande" font-size="7.9998" font-weight="normal" fill="#005795">
            <tspan x="436" y="236">75</tspan>
        </text>
        <polygon id="Fill-215" fill="#FFFFFE" points="434 272 445 272 445 265 434 265"></polygon>
        <text id="50" font-family="LucidaGrande, Lucida Grande" font-size="7.9998" font-weight="normal" fill="#005795">
            <tspan x="436" y="270">50</tspan>
        </text>
        <polygon id="Fill-216" fill="#FFFFFE" points="435 303 445 303 445 296 435 296"></polygon>
        <text id="25" font-family="LucidaGrande, Lucida Grande" font-size="7.9998" font-weight="normal" fill="#005795">
            <tspan x="436" y="301">25</tspan>
        </text>
        <polygon id="Fill-217" fill="#FFFFFE" points="435 327 445 327 445 320 435 320"></polygon>
        <text id="10" font-family="LucidaGrande, Lucida Grande" font-size="7.9998" font-weight="normal" fill="#005795">
            <tspan x="436" y="324">10</tspan>
        </text>
        <polygon id="Fill-218" fill="#FFFFFE" points="439 339 445 339 445 332 439 332"></polygon>
        <text id="5" font-family="LucidaGrande, Lucida Grande" font-size="7.9998" font-weight="normal" fill="#005795">
            <tspan x="440" y="337">5</tspan>
        </text>
        <line x1="47" y1="152.5" x2="509" y2="152.5" id="Stroke-219" stroke="#005795" stroke-width="0.75"></line>
        <polygon id="Fill-220" fill="#FFFFFE" points="55 96 70 96 70 86 55 86"></polygon>
        <polygon id="Fill-221" fill="#FFFFFE" points="55 126 70 126 70 116 55 116"></polygon>
        <polygon id="Fill-222" fill="#FFFFFE" points="55 187 70 187 70 177 55 177"></polygon>
        <polygon id="Fill-223" fill="#FFFFFE" points="54 217 70 217 70 207 54 207"></polygon>
        <polygon id="Fill-224" fill="#FFFFFE" points="55 246 70 246 70 236 55 236"></polygon>
        <polygon id="Fill-225" fill="#FFFFFE" points="54 277 70 277 70 267 54 267"></polygon>
        <polygon id="Fill-226" fill="#FFFFFE" points="55 308 70 308 70 298 55 298"></polygon>
        <polygon id="Fill-227" fill="#FFFFFE" points="54 337 70 337 70 327 54 327"></polygon>
        <polygon id="Fill-228" fill="#FFFFFE" points="54 367 70 367 70 357 54 357"></polygon>
        <polygon id="Fill-229" fill="#FFFFFE" points="55 397 70 397 70 387 55 387"></polygon>
        <polygon id="Fill-230" fill="#FFFFFE" points="54 427 70 427 70 417 54 417"></polygon>
        <text id="40" font-family="LucidaGrande, Lucida Grande" font-size="10.9997" font-weight="normal" fill="#005795">
            <tspan x="56" y="423">40</tspan>
        </text>
        <text id="45" font-family="LucidaGrande, Lucida Grande" font-size="10.9997" font-weight="normal" fill="#005795">
            <tspan x="56" y="394">45</tspan>
        </text>
        <text id="50" font-family="LucidaGrande, Lucida Grande" font-size="10.9997" font-weight="normal" fill="#005795">
            <tspan x="56" y="363">50</tspan>
        </text>
        <text id="55" font-family="LucidaGrande, Lucida Grande" font-size="10.9997" font-weight="normal" fill="#005795">
            <tspan x="56" y="334">55</tspan>
        </text>
        <text id="60" font-family="LucidaGrande, Lucida Grande" font-size="10.9997" font-weight="normal" fill="#005795">
            <tspan x="56" y="304">60</tspan>
        </text>
        <text id="65" font-family="LucidaGrande, Lucida Grande" font-size="10.9997" font-weight="normal" fill="#005795">
            <tspan x="56" y="274">65</tspan>
        </text>
        <text id="70" font-family="LucidaGrande, Lucida Grande" font-size="10.9997" font-weight="normal" fill="#005795">
            <tspan x="56" y="244">70</tspan>
        </text>
        <text id="75" font-family="LucidaGrande, Lucida Grande" font-size="10.9997" font-weight="normal" fill="#005795">
            <tspan x="56" y="214">75</tspan>
        </text>
        <text id="80" font-family="LucidaGrande, Lucida Grande" font-size="10.9997" font-weight="normal" fill="#005795">
            <tspan x="56" y="184">80</tspan>
        </text>
        <text id="90" font-family="LucidaGrande, Lucida Grande" font-size="10.9997" font-weight="normal" fill="#005795">
            <tspan x="56" y="124">90</tspan>
        </text>
        <text id="95" font-family="LucidaGrande, Lucida Grande" font-size="10.9997" font-weight="normal" fill="#005795">
            <tspan x="56" y="93">95</tspan>
        </text>
        <polygon id="Fill-231" fill="#FFFFFE" points="55 157 70 157 70 147 55 147"></polygon>
        <text id="85" font-family="LucidaGrande, Lucida Grande" font-size="10.9997" font-weight="normal" fill="#005795">
            <tspan x="56" y="154">85</tspan>
        </text>
        <polyline id="Stroke-232" stroke="#005795" stroke-width="1.5" points="73 337 73 337 78.2927839 320.895264 88.942337 297.040587 99.5598975 278.820865 110.209451 263.521265 120.828011 250.234508 131.477564 238.35774 142.095124 227.386251 152.745677 217.32004 163.39523 207.959826 174.012791 199.202462 184.663344 190.847667 195.280904 182.896442 205.930457 175.246642 216.548018 167.999411 227.197571 161.053605 237.815131 154.310085 248.465684 147.766847 259.083245 141.425895 269.732798 135.386369 280.350358 129.346843 291.000911 123.609743 301.618471 117.972785 312.268025 112.43697 322.886585 107.102439 333.536138 101.868049 344.153698 96.4323751 354.803251 91.1989868 365.420812 86.0657399 376.071365 81.1327757 386.688925 76.4020971 397.338478 71.6714185 407.956039 67.142024 418.606592 62.712771 429.224152 58.3846607 439.873705 54.1576932 450.491266 50.0298657 456 48 450.491266 50.0298657 439.873705 54.1576932 429.224152 58.3846607 418.606592 62.712771 407.956039 67.142024 397.338478 71.6714185 386.688925 76.4020971 376.071365 81.1327757 365.420812 86.0657399 354.803251 91.1989868 344.153698 96.4323751 333.536138 101.868049 322.886585 107.102439 312.268025 112.43697 301.618471 117.972785 291.000911 123.609743 280.350358 129.346843 269.732798 135.386369 259.083245 141.425895 248.465684 147.766847 237.815131 154.310085 227.197571 161.053605 216.548018 167.999411 205.930457 175.246642 195.280904 182.896442 184.663344 190.847667 174.012791 199.202462 163.39523 207.959826 152.745677 217.32004 142.095124 227.386251 131.477564 238.35774 120.828011 250.234508 110.209451 263.521265 99.5598975 278.820865 88.942337 297.040587 78.2927839 320.895264 73 337"></polyline>
        <path d="M73,341.667015 L78.2927839,325.611846 L88.942337,302.129625 L99.5598975,284.065687 L110.209451,269.012904 L120.828011,255.867054 L131.477564,244.125944 L142.095124,233.287381 L152.745677,223.453203 L163.39523,214.120218 L174.012791,205.389265 L184.663344,197.161502 L195.280904,189.333097 L205.930457,181.807205 L216.548018,174.682667 L227.197571,167.757808 L237.815131,161.033626 L248.465684,154.610959 L259.083245,148.389968 L269.732798,142.367657 L280.350358,136.447182 L291.000911,130.727384 L301.618471,125.208264 L312.268025,119.788982 L322.886585,114.470539 L333.536138,109.251935 L344.153698,104.033331 L354.803251,98.9155644 L365.420812,93.9984752 L376.071365,89.2810648 L386.688925,84.6654906 L397.338478,80.0499163 L407.956039,75.6340208 L418.606592,71.4188024 L429.224152,67.2045824 L439.873705,63.0902018 L450.491266,59.0756606 L456,57 L450.491266,59.0756606 L439.873705,63.0902018 L429.224152,67.2045824 L418.606592,71.4188024 L407.956039,75.6340208 L397.338478,80.0499163 L386.688925,84.6654906 L376.071365,89.2810648 L365.420812,93.9984752 L354.803251,98.9155644 L344.153698,104.033331 L333.536138,109.251935 L322.886585,114.470539 L312.268025,119.788982 L301.618471,125.208264 L291.000911,130.727384 L280.350358,136.447182 L269.732798,142.367657 L259.083245,148.389968 L248.465684,154.610959 L237.815131,161.033626 L227.197571,167.757808 L216.548018,174.682667 L205.930457,181.807205 L195.280904,189.333097 L184.663344,197.161502 L174.012791,205.389265 L163.39523,214.120218 L152.745677,223.453203 L142.095124,233.287381 L131.477564,244.125944 L120.828011,255.867054 L110.209451,269.012904 L99.5598975,284.065687 L88.942337,302.129625 L78.2927839,325.611846 L73,341.667015 Z M73,351 L78.2927839,335.04467 L88.942337,311.662288 L99.5598975,293.800026 L110.209451,278.848081 L120.828011,265.90191 L131.477564,254.361476 L142.095124,243.724589 L152.745677,233.99025 L163.39523,224.857943 L174.012791,216.327667 L184.663344,208.199743 L195.280904,200.472176 L205.930457,193.145962 L216.548018,186.122262 L227.197571,179.298241 L237.815131,172.774737 L248.465684,166.452907 L259.083245,160.331755 L269.732798,154.410282 L280.350358,148.690484 L291.000911,143.070526 L301.618471,137.551405 L312.268025,132.232962 L322.886585,127.115196 L333.536138,121.996431 L344.153698,116.979502 L354.803251,112.162253 L365.420812,107.54568 L376.071365,102.930106 L386.688925,98.5142101 L397.338478,94.0983146 L407.956039,89.8840946 L418.606592,85.6698747 L429.224152,81.6553334 L439.873705,77.6407922 L450.491266,73.7270887 L456,71.7542627 L450.491266,73.7270887 L439.873705,77.6407922 L429.224152,81.6553334 L418.606592,85.6698747 L407.956039,89.8840946 L397.338478,94.0983146 L386.688925,98.5142101 L376.071365,102.930106 L365.420812,107.54568 L354.803251,112.162253 L344.153698,116.979502 L333.536138,121.996431 L322.886585,127.115196 L312.268025,132.232962 L301.618471,137.551405 L291.000911,143.070526 L280.350358,148.690484 L269.732798,154.410282 L259.083245,160.331755 L248.465684,166.452907 L237.815131,172.774737 L227.197571,179.298241 L216.548018,186.122262 L205.930457,193.145962 L195.280904,200.472176 L184.663344,208.199743 L174.012791,216.327667 L163.39523,224.857943 L152.745677,233.99025 L142.095124,243.724589 L131.477564,254.361476 L120.828011,265.90191 L110.209451,278.848081 L99.5598975,293.800026 L88.942337,311.662288 L78.2927839,335.04467 L73,351 Z" id="Stroke-233" stroke="#005795" stroke-width="0.75"></path>
        <polygon id="Stroke-234" stroke="#005795" stroke-width="1.5" points="73 362 78.2927839 345.836582 88.942337 322.243705 99.5598975 304.372251 110.209451 289.613218 120.828011 276.862877 131.477564 265.418034 142.095124 255.076923 152.745677 245.438004 163.39523 236.502277 174.012791 228.169856 184.663344 220.237975 195.280904 212.808516 205.930457 205.579826 216.548018 198.753674 227.197571 192.127292 237.815131 185.801564 248.465684 179.677604 259.083245 173.754414 269.732798 167.931108 280.350358 162.308572 291.000911 156.98669 301.618471 151.665808 312.268025 146.445809 322.886585 141.42558 333.536138 136.506236 344.153698 131.78766 354.803251 127.16897 365.420812 122.651164 376.071365 118.233243 386.688925 113.916206 397.338478 109.799938 407.956039 105.582786 418.606592 101.567402 429.224152 97.6519038 439.873705 93.7364052 450.491266 89.9217906 456 88 450.491266 89.9217906 439.873705 93.7364052 429.224152 97.6519038 418.606592 101.567402 407.956039 105.582786 397.338478 109.799938 386.688925 113.916206 376.071365 118.233243 365.420812 122.651164 354.803251 127.16897 344.153698 131.78766 333.536138 136.506236 322.886585 141.42558 312.268025 146.445809 301.618471 151.665808 291.000911 156.98669 280.350358 162.308572 269.732798 167.931108 259.083245 173.754414 248.465684 179.677604 237.815131 185.801564 227.197571 192.127292 216.548018 198.753674 205.930457 205.579826 195.280904 212.808516 184.663344 220.237975 174.012791 228.169856 163.39523 236.502277 152.745677 245.438004 142.095124 255.076923 131.477564 265.418034 120.828011 276.862877 110.209451 289.613218 99.5598975 304.372251 88.942337 322.243705 78.2927839 345.836582"></polygon>
        <path d="M73,372.358328 L78.2927839,355.687729 L88.942337,331.786374 L99.5598975,313.809903 L110.209451,299.147568 L120.828011,286.493498 L131.477564,275.1463 L142.095124,265.002063 L152.745677,255.66313 L163.39523,246.925677 L174.012791,238.791703 L184.663344,231.058383 L195.280904,223.827629 L205.930457,216.897615 L216.548018,210.269341 L227.197571,203.842892 L237.815131,197.716184 L248.465684,191.892215 L259.083245,186.16716 L269.732798,180.544018 L280.350358,175.220616 L291.000911,169.998127 L301.618471,164.87755 L312.268025,159.955802 L322.886585,155.134966 L333.536138,150.415043 L344.153698,145.895947 L354.803251,141.37685 L365.420812,136.957667 L376.071365,132.74031 L386.688925,128.521954 L397.338478,124.404511 L407.956039,120.38798 L418.606592,116.370451 L429.224152,112.554747 L439.873705,108.63813 L450.491266,104.92134 L456,103 L450.491266,104.92134 L439.873705,108.63813 L429.224152,112.554747 L418.606592,116.370451 L407.956039,120.38798 L397.338478,124.404511 L386.688925,128.521954 L376.071365,132.74031 L365.420812,136.957667 L354.803251,141.37685 L344.153698,145.895947 L333.536138,150.415043 L322.886585,155.134966 L312.268025,159.955802 L301.618471,164.87755 L291.000911,169.998127 L280.350358,175.220616 L269.732798,180.544018 L259.083245,186.16716 L248.465684,191.892215 L237.815131,197.716184 L227.197571,203.842892 L216.548018,210.269341 L205.930457,216.897615 L195.280904,223.827629 L184.663344,231.058383 L174.012791,238.791703 L163.39523,246.925677 L152.745677,255.66313 L142.095124,265.002063 L131.477564,275.1463 L120.828011,286.493498 L110.209451,299.147568 L99.5598975,313.809903 L88.942337,331.786374 L78.2927839,355.687729 L73,372.358328 Z M73,382 L78.2927839,364.725921 L88.942337,340.222088 L99.5598975,322.145702 L110.209451,307.382455 L120.828011,294.829298 L131.477564,283.681927 L142.095124,273.639602 L152.745677,264.500496 L163.39523,255.96387 L174.012791,248.030723 L184.663344,240.598143 L195.280904,233.468302 L205.930457,226.740113 L216.548018,220.413578 L227.197571,214.28687 L237.815131,208.361988 L248.465684,202.737847 L259.083245,197.213618 L269.732798,191.892215 L280.350358,186.76964 L291.000911,181.84889 L301.618471,176.928141 L312.268025,172.208218 L322.886585,167.689122 L333.536138,163.169026 L344.153698,158.64993 L354.803251,154.33166 L365.420812,150.01339 L376.071365,145.795034 L386.688925,141.67759 L397.338478,137.561146 L407.956039,133.543616 L418.606592,129.627 L429.224152,125.710383 L439.873705,121.994592 L450.491266,118.177889 L456,116.256549 L450.491266,118.177889 L439.873705,121.994592 L429.224152,125.710383 L418.606592,129.627 L407.956039,133.543616 L397.338478,137.561146 L386.688925,141.67759 L376.071365,145.795034 L365.420812,150.01339 L354.803251,154.33166 L344.153698,158.64993 L333.536138,163.169026 L322.886585,167.689122 L312.268025,172.208218 L301.618471,176.928141 L291.000911,181.84889 L280.350358,186.76964 L269.732798,191.892215 L259.083245,197.213618 L248.465684,202.737847 L237.815131,208.361988 L227.197571,214.28687 L216.548018,220.413578 L205.930457,226.740113 L195.280904,233.468302 L184.663344,240.598143 L174.012791,248.030723 L163.39523,255.96387 L152.745677,264.500496 L142.095124,273.639602 L131.477564,283.681927 L120.828011,294.829298 L110.209451,307.382455 L99.5598975,322.145702 L88.942337,340.222088 L78.2927839,364.725921 L73,382 Z" id="Stroke-235" stroke="#005795" stroke-width="0.75"></path>
        <polygon id="Stroke-236" stroke="#005795" stroke-width="1.5" points="73 388 78.2927839 370.113268 88.942337 345.192215 99.5598975 327.003556 110.209451 312.231081 120.828011 299.670079 131.477564 288.616716 142.095124 278.668091 152.745677 269.624249 163.39523 261.283239 174.012791 253.44511 184.663344 246.10886 195.280904 239.175515 205.930457 232.644074 216.548018 226.312584 227.197571 220.383999 237.815131 214.656366 248.465684 209.128685 259.083245 203.802956 269.732798 198.678179 280.350358 193.653378 291.000911 188.830529 301.618471 184.207632 312.268025 179.585735 322.886585 175.16379 333.536138 170.842822 344.153698 166.420877 354.803251 161.998932 365.420812 157.677963 376.071365 153.557946 386.688925 149.43793 397.338478 145.317913 407.956039 141.297872 418.606592 137.378807 429.224152 133.560718 439.873705 129.74163 450.491266 125.923541 456 124 450.491266 125.923541 439.873705 129.74163 429.224152 133.560718 418.606592 137.378807 407.956039 141.297872 397.338478 145.317913 386.688925 149.43793 376.071365 153.557946 365.420812 157.677963 354.803251 161.998932 344.153698 166.420877 333.536138 170.842822 322.886585 175.16379 312.268025 179.585735 301.618471 184.207632 291.000911 188.830529 280.350358 193.653378 269.732798 198.678179 259.083245 203.802956 248.465684 209.128685 237.815131 214.656366 227.197571 220.383999 216.548018 226.312584 205.930457 232.644074 195.280904 239.175515 184.663344 246.10886 174.012791 253.44511 163.39523 261.283239 152.745677 269.624249 142.095124 278.668091 131.477564 288.616716 120.828011 299.670079 110.209451 312.231081 99.5598975 327.003556 88.942337 345.192215 78.2927839 370.113268"></polygon>
        <polygon id="Fill-237" fill="#FFFFFE" points="435 58 445 58 445 50 435 50"></polygon>
        <text id="95" font-family="LucidaGrande, Lucida Grande" font-size="7.9998" font-weight="normal" fill="#005795">
            <tspan x="436" y="55">95</tspan>
        </text>
        <polygon id="Fill-238" fill="#FFFFFE" points="435 97 445 97 445 90 435 90"></polygon>
        <polygon id="Fill-239" fill="#FFFFFE" points="435 113 445 113 445 106 435 106"></polygon>
        <polygon id="Fill-240" fill="#FFFFFE" points="435 67 445 67 445 60 435 60"></polygon>
        <text id="90" font-family="LucidaGrande, Lucida Grande" font-size="7.9998" font-weight="normal" fill="#005795">
            <tspan x="436" y="64">90</tspan>
        </text>
        <polygon id="Fill-241" fill="#FFFFFE" points="435 81 445 81 445 74 435 74"></polygon>
        <text id="75" font-family="LucidaGrande, Lucida Grande" font-size="7.9998" font-weight="normal" fill="#005795">
            <tspan x="436" y="79">75</tspan>
        </text>
        <text id="50" font-family="LucidaGrande, Lucida Grande" font-size="7.9998" font-weight="normal" fill="#005795">
            <tspan x="436" y="95">50</tspan>
        </text>
        <text id="25" font-family="LucidaGrande, Lucida Grande" font-size="7.9998" font-weight="normal" fill="#005795">
            <tspan x="436" y="110">25</tspan>
        </text>
        <polygon id="Fill-242" fill="#FFFFFE" points="435 125 445 125 445 118 435 118"></polygon>
        <text id="10" font-family="LucidaGrande, Lucida Grande" font-size="7.9998" font-weight="normal" fill="#005795">
            <tspan x="436" y="123">10</tspan>
        </text>
        <polygon id="Fill-243" fill="#FFFFFE" points="438 134 445 134 445 126 438 126"></polygon>
        <text id="5" font-family="LucidaGrande, Lucida Grande" font-size="7.9998" font-weight="normal" fill="#005795">
            <tspan x="440" y="132">5</tspan>
        </text>
        <line x1="456" y1="140.458" x2="510" y2="140.542" id="Stroke-244" stroke="#005795" stroke-width="0.75"></line>
        <polygon id="Fill-245" fill="#FFFFFE" points="27 440 39 440 39 431 27 431"></polygon>
        <text id="15" font-family="LucidaGrande, Lucida Grande" font-size="10.9997" font-weight="normal" fill="#005795">
            <tspan x="27" y="437">15</tspan>
        </text>
        <polygon id="Fill-246" fill="#FFFFFE" points="27 424 39 424 39 415 27 415"></polygon>
        <text id="16" font-family="LucidaGrande, Lucida Grande" font-size="10.9997" font-weight="normal" fill="#005795">
            <tspan x="27" y="421">16</tspan>
        </text>
        <polygon id="Fill-247" fill="#FFFFFE" points="27 409 39 409 39 400 27 400"></polygon>
        <text id="17" font-family="LucidaGrande, Lucida Grande" font-size="10.9997" font-weight="normal" fill="#005795">
            <tspan x="27" y="406">17</tspan>
        </text>
        <polygon id="Fill-248" fill="#FFFFFE" points="27 394 39 394 39 385 27 385"></polygon>
        <text id="18" font-family="LucidaGrande, Lucida Grande" font-size="10.9997" font-weight="normal" fill="#005795">
            <tspan x="27" y="391">18</tspan>
        </text>
        <polygon id="Fill-249" fill="#FFFFFE" points="27 378 41 378 41 369 27 369"></polygon>
        <text id="19" font-family="LucidaGrande, Lucida Grande" font-size="10.9997" font-weight="normal" fill="#005795">
            <tspan x="27" y="376">19</tspan>
        </text>
        <polygon id="Fill-250" fill="#FFFFFE" points="26 363 41 363 41 354 26 354"></polygon>
        <text id="20" font-family="LucidaGrande, Lucida Grande" font-size="10.9997" font-weight="normal" fill="#005795">
            <tspan x="27" y="360">20</tspan>
        </text>
        <polygon id="Fill-251" fill="#FFFFFE" points="26 348 41 348 41 339 26 339"></polygon>
        <text id="21" font-family="LucidaGrande, Lucida Grande" font-size="10.9997" font-weight="normal" fill="#005795">
            <tspan x="27" y="346">21</tspan>
        </text>
        <polygon id="Fill-252" fill="#FFFFFE" points="26 333 41 333 41 324 26 324"></polygon>
        <text id="22" font-family="LucidaGrande, Lucida Grande" font-size="10.9997" font-weight="normal" fill="#005795">
            <tspan x="27" y="330">22</tspan>
        </text>
        <polygon id="Fill-253" fill="#FFFFFE" points="26 317 41 317 41 308 26 308"></polygon>
        <text id="23" font-family="LucidaGrande, Lucida Grande" font-size="10.9997" font-weight="normal" fill="#005795">
            <tspan x="27" y="315">23</tspan>
        </text>
        <polygon id="Fill-254" fill="#FFFFFE" points="26 304 41 304 41 296 26 296"></polygon>
        <text id="24" font-family="LucidaGrande, Lucida Grande" font-size="10.9997" font-weight="normal" fill="#005795">
            <tspan x="27" y="300">24</tspan>
        </text>
        <polygon id="Fill-255" fill="#FFFFFE" points="25 287 40 287 40 278 25 278"></polygon>
        <text id="25" font-family="LucidaGrande, Lucida Grande" font-size="10.9997" font-weight="normal" fill="#005795">
            <tspan x="27" y="284">25</tspan>
        </text>
        <polygon id="Fill-256" fill="#FFFFFE" points="25 272 40 272 40 263 25 263"></polygon>
        <text id="26" font-family="LucidaGrande, Lucida Grande" font-size="10.9997" font-weight="normal" fill="#005795">
            <tspan x="27" y="269">26</tspan>
        </text>
        <polygon id="Fill-257" fill="#FFFFFE" points="25 257 40 257 40 248 25 248"></polygon>
        <text id="27" font-family="LucidaGrande, Lucida Grande" font-size="10.9997" font-weight="normal" fill="#005795">
            <tspan x="27" y="254">27</tspan>
        </text>
        <polygon id="Fill-258" fill="#FFFFFE" points="25 241 40 241 40 232 25 232"></polygon>
        <text id="28" font-family="LucidaGrande, Lucida Grande" font-size="10.9997" font-weight="normal" fill="#005795">
            <tspan x="27" y="238">28</tspan>
        </text>
        <polygon id="Fill-259" fill="#FFFFFE" points="25 226 40 226 40 217 25 217"></polygon>
        <text id="29" font-family="LucidaGrande, Lucida Grande" font-size="10.9997" font-weight="normal" fill="#005795">
            <tspan x="27" y="223">29</tspan>
        </text>
        <polygon id="Fill-260" fill="#FFFFFE" points="25 210 40 210 40 201 25 201"></polygon>
        <text id="30" font-family="LucidaGrande, Lucida Grande" font-size="10.9997" font-weight="normal" fill="#005795">
            <tspan x="27" y="208">30</tspan>
        </text>
        <polygon id="Fill-261" fill="#FFFFFE" points="25 195 40 195 40 186 25 186"></polygon>
        <text id="31" font-family="LucidaGrande, Lucida Grande" font-size="10.9997" font-weight="normal" fill="#005795">
            <tspan x="27" y="192">31</tspan>
        </text>
        <polygon id="Fill-262" fill="#FFFFFE" points="25 181 40 181 40 172 25 172"></polygon>
        <text id="32" font-family="LucidaGrande, Lucida Grande" font-size="10.9997" font-weight="normal" fill="#005795">
            <tspan x="27" y="177">32</tspan>
        </text>
        <polygon id="Fill-263" fill="#FFFFFE" points="25 165 40 165 40 156 25 156"></polygon>
        <text id="33" font-family="LucidaGrande, Lucida Grande" font-size="10.9997" font-weight="normal" fill="#005795">
            <tspan x="27" y="162">33</tspan>
        </text>
        <polygon id="Fill-264" fill="#FFFFFE" points="25 150 40 150 40 141 25 141"></polygon>
        <text id="34" font-family="LucidaGrande, Lucida Grande" font-size="10.9997" font-weight="normal" fill="#005795">
            <tspan x="27" y="147">34</tspan>
        </text>
        <polygon id="Fill-265" fill="#FFFFFE" points="25 134 40 134 40 125 25 125"></polygon>
        <text id="35" font-family="LucidaGrande, Lucida Grande" font-size="10.9997" font-weight="normal" fill="#005795">
            <tspan x="27" y="131">35</tspan>
        </text>
        <polygon id="Fill-266" fill="#FFFFFE" points="25 119 40 119 40 110 25 110"></polygon>
        <text id="36" font-family="LucidaGrande, Lucida Grande" font-size="10.9997" font-weight="normal" fill="#005795">
            <tspan x="27" y="116">36</tspan>
        </text>
        <polygon id="Fill-267" fill="#FFFFFE" points="25 103 40 103 40 94 25 94"></polygon>
        <text id="37" font-family="LucidaGrande, Lucida Grande" font-size="10.9997" font-weight="normal" fill="#005795">
            <tspan x="27" y="101">37</tspan>
        </text>
        <polygon id="Fill-268" fill="#FFFFFE" points="25 89 40 89 40 80 25 80"></polygon>
        <polygon id="Fill-269" fill="#FFFFFE" points="25 75 40 75 40 66 25 66"></polygon>
        <polygon id="Fill-270" fill="#FFFFFE" points="25 58 40 58 40 49 25 49"></polygon>
        <polygon id="Fill-271" fill="#FFFFFE" points="25 42 40 42 40 33 25 33"></polygon>
        <text id="38" font-family="LucidaGrande, Lucida Grande" font-size="10.9997" font-weight="normal" fill="#005795">
            <tspan x="27" y="86">38</tspan>
        </text>
        <text id="39" font-family="LucidaGrande, Lucida Grande" font-size="10.9997" font-weight="normal" fill="#005795">
            <tspan x="27" y="70">39</tspan>
        </text>
        <text id="40" font-family="LucidaGrande, Lucida Grande" font-size="10.9997" font-weight="normal" fill="#005795">
            <tspan x="27" y="55">40</tspan>
        </text>
        <text id="41" font-family="LucidaGrande, Lucida Grande" font-size="10.9997" font-weight="normal" fill="#005795">
            <tspan x="27" y="40">41</tspan>
        </text>
        <polygon id="Fill-272" fill="#FFFFFE" points="25 29 40 29 40 20 25 20"></polygon>
        <text id="in" font-family="LucidaGrande, Lucida Grande" font-size="10.9999" font-weight="normal" fill="#005795">
            <tspan x="28" y="27">in</tspan>
        </text>
        <polygon id="Fill-273" fill="#FFFFFE" points="489 30 501 30 501 20 489 20"></polygon>
        <text id="in" font-family="LucidaGrande, Lucida Grande" font-size="10.9999" font-weight="normal" fill="#005795">
            <tspan x="491" y="27">in</tspan>
        </text>
        <polygon id="Fill-274" fill="#FFFFFE" points="490 43 504 43 504 33 490 33"></polygon>
        <text id="41" font-family="LucidaGrande, Lucida Grande" font-size="10.9999" font-weight="normal" fill="#005795">
            <tspan x="491" y="40">41</tspan>
        </text>
        <polygon id="Fill-275" fill="#FFFFFE" points="490 59 504 59 504 49 490 49"></polygon>
        <text id="40" font-family="LucidaGrande, Lucida Grande" font-size="10.9999" font-weight="normal" fill="#005795">
            <tspan x="491" y="56">40</tspan>
        </text>
        <polygon id="Fill-276" fill="#FFFFFE" points="490 75 504 75 504 65 490 65"></polygon>
        <text id="39" font-family="LucidaGrande, Lucida Grande" font-size="10.9999" font-weight="normal" fill="#005795">
            <tspan x="491" y="72">39</tspan>
        </text>
        <polygon id="Fill-277" fill="#FFFFFE" points="490 89 504 89 504 79 490 79"></polygon>
        <text id="38" font-family="LucidaGrande, Lucida Grande" font-size="10.9999" font-weight="normal" fill="#005795">
            <tspan x="491" y="86">38</tspan>
        </text>
        <polygon id="Fill-278" fill="#FFFFFE" points="490 104 504 104 504 94 490 94"></polygon>
        <text id="37" font-family="LucidaGrande, Lucida Grande" font-size="10.9999" font-weight="normal" fill="#005795">
            <tspan x="491" y="101">37</tspan>
        </text>
        <polygon id="Fill-279" fill="#FFFFFE" points="490 120 504 120 504 110 490 110"></polygon>
        <text id="36" font-family="LucidaGrande, Lucida Grande" font-size="10.9999" font-weight="normal" fill="#005795">
            <tspan x="491" y="116">36</tspan>
        </text>
        <polygon id="Fill-280" fill="#FFFFFE" points="490 134 504 134 504 124 490 124"></polygon>
        <text id="35" font-family="LucidaGrande, Lucida Grande" font-size="10.9999" font-weight="normal" fill="#005795">
            <tspan x="491" y="131">35</tspan>
        </text>
        <line x1="304.5" y1="531" x2="304.5" y2="650" id="Stroke-313" stroke="#005795" stroke-width="0.8"></line>
    </g>
</svg>